solid v3d.csg
  facet normal 0.9822872507286886 -0.18738131458572482 0.0
    outer loop
      vertex 0.4911436253643443 -0.09369065729286238 -2.0
      vertex 0.4911436253643443 -0.09369065729286238 -1.0
      vertex -3.256482666350151 -19.73943567186663 -1.0
    endloop
  endfacet
  facet normal 0.9822872507286886 -0.18738131458572482 0.0
    outer loop
      vertex 0.4911436253643443 -0.09369065729286238 -2.0
      vertex -3.256482666350151 -19.73943567186663 -1.0
      vertex -3.256482666350151 -19.73943567186663 -2.0
    endloop
  endfacet
  facet normal -0.9822872507286886 0.18738131458572482 0.0
    outer loop
      vertex -0.4911436253643443 0.09369065729286238 -2.0
      vertex -4.23876991707884 -19.55205435728091 -2.0
      vertex -4.23876991707884 -19.55205435728091 -1.0
    endloop
  endfacet
  facet normal -0.9822872507286886 0.18738131458572482 0.0
    outer loop
      vertex -0.4911436253643443 0.09369065729286238 -2.0
      vertex -4.23876991707884 -19.55205435728091 -1.0
      vertex -0.4911436253643443 0.09369065729286238 -1.0
    endloop
  endfacet
  facet normal 0.1873813145857248 0.9822872507286887 0.0
    outer loop
      vertex 0.4911436253643443 -0.09369065729286238 -2.0
      vertex -0.4911436253643443 0.09369065729286238 -2.0
      vertex -0.4911436253643443 0.09369065729286238 -1.0
    endloop
  endfacet
  facet normal 0.1873813145857248 0.9822872507286887 0.0
    outer loop
      vertex 0.4911436253643443 -0.09369065729286238 -2.0
      vertex -0.4911436253643443 0.09369065729286238 -1.0
      vertex 0.4911436253643443 -0.09369065729286238 -1.0
    endloop
  endfacet
  facet normal -0.18738131458572138 -0.9822872507286894 0.0
    outer loop
      vertex -3.256482666350151 -19.73943567186663 -2.0
      vertex -3.256482666350151 -19.73943567186663 -1.0
      vertex -4.23876991707884 -19.55205435728091 -1.0
    endloop
  endfacet
  facet normal -0.18738131458572138 -0.9822872507286894 0.0
    outer loop
      vertex -3.256482666350151 -19.73943567186663 -2.0
      vertex -4.23876991707884 -19.55205435728091 -1.0
      vertex -4.23876991707884 -19.55205435728091 -2.0
    endloop
  endfacet
  facet normal 0.0 0.0 -1.0
    outer loop
      vertex 0.4911436253643443 -0.09369065729286238 -2.0
      vertex -3.256482666350151 -19.73943567186663 -2.0
      vertex -4.23876991707884 -19.55205435728091 -2.0
    endloop
  endfacet
  facet normal 0.0 0.0 -1.0
    outer loop
      vertex 0.4911436253643443 -0.09369065729286238 -2.0
      vertex -4.23876991707884 -19.55205435728091 -2.0
      vertex -0.4911436253643443 0.09369065729286238 -2.0
    endloop
  endfacet
  facet normal 0.0 0.0 1.0
    outer loop
      vertex 0.4911436253643443 -0.09369065729286238 -1.0
      vertex -0.4911436253643443 0.09369065729286238 -1.0
      vertex -4.23876991707884 -19.55205435728091 -1.0
    endloop
  endfacet
  facet normal 0.0 0.0 1.0
    outer loop
      vertex 0.4911436253643443 -0.09369065729286238 -1.0
      vertex -4.23876991707884 -19.55205435728091 -1.0
      vertex -3.256482666350151 -19.73943567186663 -1.0
    endloop
  endfacet
endsolid v3d.csg
