solid v3d.csg
  facet normal -0.16504760586067763 0.9862856015372314 0.0
    outer loop
      vertex -0.08252380293033879 0.4931428007686157 -2.0
      vertex -0.08252380293033879 0.4931428007686157 -1.0
      vertex 19.64318822781429 3.794094917982168 -1.0
    endloop
  endfacet
  facet normal -0.16504760586067763 0.9862856015372314 0.0
    outer loop
      vertex -0.08252380293033879 0.4931428007686157 -2.0
      vertex 19.64318822781429 3.794094917982168 -1.0
      vertex 19.64318822781429 3.794094917982168 -2.0
    endloop
  endfacet
  facet normal 0.16504760586067752 -0.9862856015372314 0.0
    outer loop
      vertex 0.08252380293033879 -0.4931428007686157 -2.0
      vertex 19.808235833674967 2.807809316444935 -2.0
      vertex 19.808235833674967 2.807809316444935 -1.0
    endloop
  endfacet
  facet normal 0.16504760586067752 -0.9862856015372314 0.0
    outer loop
      vertex 0.08252380293033879 -0.4931428007686157 -2.0
      vertex 19.808235833674967 2.807809316444935 -1.0
      vertex 0.08252380293033879 -0.4931428007686157 -1.0
    endloop
  endfacet
  facet normal -0.9862856015372314 -0.16504760586067757 0.0
    outer loop
      vertex -0.08252380293033879 0.4931428007686157 -2.0
      vertex 0.08252380293033879 -0.4931428007686157 -2.0
      vertex 0.08252380293033879 -0.4931428007686157 -1.0
    endloop
  endfacet
  facet normal -0.9862856015372314 -0.16504760586067757 0.0
    outer loop
      vertex -0.08252380293033879 0.4931428007686157 -2.0
      vertex 0.08252380293033879 -0.4931428007686157 -1.0
      vertex -0.08252380293033879 0.4931428007686157 -1.0
    endloop
  endfacet
  facet normal 0.9862856015372314 0.1650476058606782 -0.0
    outer loop
      vertex 19.64318822781429 3.794094917982168 -2.0
      vertex 19.64318822781429 3.794094917982168 -1.0
      vertex 19.808235833674967 2.807809316444935 -1.0
    endloop
  endfacet
  facet normal 0.9862856015372314 0.1650476058606782 -0.0
    outer loop
      vertex 19.64318822781429 3.794094917982168 -2.0
      vertex 19.808235833674967 2.807809316444935 -1.0
      vertex 19.808235833674967 2.807809316444935 -2.0
    endloop
  endfacet
  facet normal 0.0 0.0 -1.0
    outer loop
      vertex -0.08252380293033879 0.4931428007686157 -2.0
      vertex 19.64318822781429 3.794094917982168 -2.0
      vertex 19.808235833674967 2.807809316444935 -2.0
    endloop
  endfacet
  facet normal 0.0 0.0 -1.0
    outer loop
      vertex -0.08252380293033879 0.4931428007686157 -2.0
      vertex 19.808235833674967 2.807809316444935 -2.0
      vertex 0.08252380293033879 -0.4931428007686157 -2.0
    endloop
  endfacet
  facet normal -0.0 0.0 1.0
    outer loop
      vertex -0.08252380293033879 0.4931428007686157 -1.0
      vertex 0.08252380293033879 -0.4931428007686157 -1.0
      vertex 19.808235833674967 2.807809316444935 -1.0
    endloop
  endfacet
  facet normal -0.0 0.0 1.0
    outer loop
      vertex -0.08252380293033879 0.4931428007686157 -1.0
      vertex 19.808235833674967 2.807809316444935 -1.0
      vertex 19.64318822781429 3.794094917982168 -1.0
    endloop
  endfacet
endsolid v3d.csg
