solid v3d.csg
  facet normal 0.8720692724321206 -0.48938245174884604 0.0
    outer loop
      vertex 0.4360346362160603 -0.24469122587442313 -2.0
      vertex 0.4360346362160603 -0.24469122587442313 -1.0
      vertex -9.351614398760864 -17.68607667451684 -1.0
    endloop
  endfacet
  facet normal 0.8720692724321206 -0.48938245174884604 0.0
    outer loop
      vertex 0.4360346362160603 -0.24469122587442313 -2.0
      vertex -9.351614398760864 -17.68607667451684 -1.0
      vertex -9.351614398760864 -17.68607667451684 -2.0
    endloop
  endfacet
  facet normal -0.8720692724321205 0.4893824517488462 0.0
    outer loop
      vertex -0.4360346362160603 0.24469122587442313 -2.0
      vertex -10.223683671192985 -17.196694222767988 -2.0
      vertex -10.223683671192985 -17.196694222767988 -1.0
    endloop
  endfacet
  facet normal -0.8720692724321205 0.4893824517488462 0.0
    outer loop
      vertex -0.4360346362160603 0.24469122587442313 -2.0
      vertex -10.223683671192985 -17.196694222767988 -1.0
      vertex -0.4360346362160603 0.24469122587442313 -1.0
    endloop
  endfacet
  facet normal 0.48938245174884626 0.8720692724321206 0.0
    outer loop
      vertex 0.4360346362160603 -0.24469122587442313 -2.0
      vertex -0.4360346362160603 0.24469122587442313 -2.0
      vertex -0.4360346362160603 0.24469122587442313 -1.0
    endloop
  endfacet
  facet normal 0.48938245174884626 0.8720692724321206 0.0
    outer loop
      vertex 0.4360346362160603 -0.24469122587442313 -2.0
      vertex -0.4360346362160603 0.24469122587442313 -1.0
      vertex 0.4360346362160603 -0.24469122587442313 -1.0
    endloop
  endfacet
  facet normal -0.4893824517488509 -0.8720692724321182 0.0
    outer loop
      vertex -9.351614398760864 -17.68607667451684 -2.0
      vertex -9.351614398760864 -17.68607667451684 -1.0
      vertex -10.223683671192985 -17.196694222767988 -1.0
    endloop
  endfacet
  facet normal -0.4893824517488509 -0.8720692724321182 0.0
    outer loop
      vertex -9.351614398760864 -17.68607667451684 -2.0
      vertex -10.223683671192985 -17.196694222767988 -1.0
      vertex -10.223683671192985 -17.196694222767988 -2.0
    endloop
  endfacet
  facet normal 0.0 0.0 -1.0
    outer loop
      vertex 0.4360346362160603 -0.24469122587442313 -2.0
      vertex -9.351614398760864 -17.68607667451684 -2.0
      vertex -10.223683671192985 -17.196694222767988 -2.0
    endloop
  endfacet
  facet normal 0.0 0.0 -1.0
    outer loop
      vertex 0.4360346362160603 -0.24469122587442313 -2.0
      vertex -10.223683671192985 -17.196694222767988 -2.0
      vertex -0.4360346362160603 0.24469122587442313 -2.0
    endloop
  endfacet
  facet normal 0.0 0.0 1.0
    outer loop
      vertex 0.4360346362160603 -0.24469122587442313 -1.0
      vertex -0.4360346362160603 0.24469122587442313 -1.0
      vertex -10.223683671192985 -17.196694222767988 -1.0
    endloop
  endfacet
  facet normal 0.0 0.0 1.0
    outer loop
      vertex 0.4360346362160603 -0.24469122587442313 -1.0
      vertex -10.223683671192985 -17.196694222767988 -1.0
      vertex -9.351614398760864 -17.68607667451684 -1.0
    endloop
  endfacet
endsolid v3d.csg
