solid v3d.csg
  facet normal -0.8625136692072575 -0.5060337641211637 0.0
    outer loop
      vertex -0.43125683460362874 -0.25301688206058187 -2.0
      vertex -0.43125683460362874 -0.25301688206058187 -1.0
      vertex -10.551932117026903 16.997256502084568 -1.0
    endloop
  endfacet
  facet normal -0.8625136692072575 -0.5060337641211637 0.0
    outer loop
      vertex -0.43125683460362874 -0.25301688206058187 -2.0
      vertex -10.551932117026903 16.997256502084568 -1.0
      vertex -10.551932117026903 16.997256502084568 -2.0
    endloop
  endfacet
  facet normal 0.8625136692072575 0.5060337641211637 0.0
    outer loop
      vertex 0.43125683460362874 0.25301688206058187 -2.0
      vertex -9.689418447819646 17.50329026620573 -2.0
      vertex -9.689418447819646 17.50329026620573 -1.0
    endloop
  endfacet
  facet normal 0.8625136692072575 0.5060337641211637 0.0
    outer loop
      vertex 0.43125683460362874 0.25301688206058187 -2.0
      vertex -9.689418447819646 17.50329026620573 -1.0
      vertex 0.43125683460362874 0.25301688206058187 -1.0
    endloop
  endfacet
  facet normal 0.5060337641211637 -0.8625136692072575 0.0
    outer loop
      vertex -0.43125683460362874 -0.25301688206058187 -2.0
      vertex 0.43125683460362874 0.25301688206058187 -2.0
      vertex 0.43125683460362874 0.25301688206058187 -1.0
    endloop
  endfacet
  facet normal 0.5060337641211637 -0.8625136692072575 0.0
    outer loop
      vertex -0.43125683460362874 -0.25301688206058187 -2.0
      vertex 0.43125683460362874 0.25301688206058187 -1.0
      vertex -0.43125683460362874 -0.25301688206058187 -1.0
    endloop
  endfacet
  facet normal -0.5060337641211637 0.8625136692072576 0.0
    outer loop
      vertex -10.551932117026903 16.997256502084568 -2.0
      vertex -10.551932117026903 16.997256502084568 -1.0
      vertex -9.689418447819646 17.50329026620573 -1.0
    endloop
  endfacet
  facet normal -0.5060337641211637 0.8625136692072576 0.0
    outer loop
      vertex -10.551932117026903 16.997256502084568 -2.0
      vertex -9.689418447819646 17.50329026620573 -1.0
      vertex -9.689418447819646 17.50329026620573 -2.0
    endloop
  endfacet
  facet normal 0.0 0.0 -1.0
    outer loop
      vertex -0.43125683460362874 -0.25301688206058187 -2.0
      vertex -10.551932117026903 16.997256502084568 -2.0
      vertex -9.689418447819646 17.50329026620573 -2.0
    endloop
  endfacet
  facet normal 0.0 0.0 -1.0
    outer loop
      vertex -0.43125683460362874 -0.25301688206058187 -2.0
      vertex -9.689418447819646 17.50329026620573 -2.0
      vertex 0.43125683460362874 0.25301688206058187 -2.0
    endloop
  endfacet
  facet normal 0.0 -0.0 1.0
    outer loop
      vertex -0.43125683460362874 -0.25301688206058187 -1.0
      vertex 0.43125683460362874 0.25301688206058187 -1.0
      vertex -9.689418447819646 17.50329026620573 -1.0
    endloop
  endfacet
  facet normal 0.0 -0.0 1.0
    outer loop
      vertex -0.43125683460362874 -0.25301688206058187 -1.0
      vertex -9.689418447819646 17.50329026620573 -1.0
      vertex -10.551932117026903 16.997256502084568 -1.0
    endloop
  endfacet
endsolid v3d.csg
