solid v3d.csg
  facet normal 0.0 1.0 0.0
    outer loop
      vertex -169.28 0.5 -5.551115123125783E-17
      vertex -170.28 0.5 -5.551115123125783E-17
      vertex -170.28 0.5 20.0
    endloop
  endfacet
  facet normal 0.0 1.0 0.0
    outer loop
      vertex -169.28 0.5 -5.551115123125783E-17
      vertex -170.28 0.5 20.0
      vertex -169.28 0.5 20.0
    endloop
  endfacet
  facet normal 0.0 -1.0 0.0
    outer loop
      vertex -169.28 -0.5 5.551115123125783E-17
      vertex -169.28 -0.5 20.0
      vertex -170.28 -0.5 20.0
    endloop
  endfacet
  facet normal 0.0 -1.0 0.0
    outer loop
      vertex -169.28 -0.5 5.551115123125783E-17
      vertex -170.28 -0.5 20.0
      vertex -170.28 -0.5000000000000001 0.0
    endloop
  endfacet
  facet normal 5.551115123125783E-17 -1.1102230246251565E-16 -1.0
    outer loop
      vertex -169.28 0.5 -5.551115123125783E-17
      vertex -169.28 -0.5 5.551115123125783E-17
      vertex -170.28 -0.5000000000000001 0.0
    endloop
  endfacet
  facet normal 5.551115123125783E-17 -1.1102230246251565E-16 -1.0
    outer loop
      vertex -169.28 0.5 -5.551115123125783E-17
      vertex -170.28 -0.5000000000000001 0.0
      vertex -170.28 0.5 -5.551115123125783E-17
    endloop
  endfacet
  facet normal 0.0 0.0 1.0
    outer loop
      vertex -169.28 0.5 20.0
      vertex -170.28 0.5 20.0
      vertex -170.28 -0.5 20.0
    endloop
  endfacet
  facet normal 0.0 0.0 1.0
    outer loop
      vertex -169.28 0.5 20.0
      vertex -170.28 -0.5 20.0
      vertex -169.28 -0.5 20.0
    endloop
  endfacet
  facet normal 1.0 0.0 -0.0
    outer loop
      vertex -169.28 0.5 -5.551115123125783E-17
      vertex -169.28 0.5 20.0
      vertex -169.28 -0.5 20.0
    endloop
  endfacet
  facet normal 1.0 0.0 -0.0
    outer loop
      vertex -169.28 0.5 -5.551115123125783E-17
      vertex -169.28 -0.5 20.0
      vertex -169.28 -0.5 5.551115123125783E-17
    endloop
  endfacet
  facet normal -1.0 0.0 0.0
    outer loop
      vertex -170.28 0.5 -5.551115123125783E-17
      vertex -170.28 -0.5000000000000001 0.0
      vertex -170.28 -0.5 20.0
    endloop
  endfacet
  facet normal -1.0 0.0 0.0
    outer loop
      vertex -170.28 0.5 -5.551115123125783E-17
      vertex -170.28 -0.5 20.0
      vertex -170.28 0.5 20.0
    endloop
  endfacet
endsolid v3d.csg
