solid v3d.csg
  facet normal -1.0 0.0 0.0
    outer loop
      vertex -2.0 -2.0 -2.0
      vertex -2.0 -2.0 2.0
      vertex -2.0 2.0 2.0
    endloop
  endfacet
  facet normal -1.0 0.0 0.0
    outer loop
      vertex -2.0 -2.0 -2.0
      vertex -2.0 2.0 2.0
      vertex -2.0 2.0 -2.0
    endloop
  endfacet
  facet normal 1.0 0.0 0.0
    outer loop
      vertex 2.0 -2.0 -2.0
      vertex 2.0 2.0 -2.0
      vertex 2.0 2.0 2.0
    endloop
  endfacet
  facet normal 1.0 0.0 0.0
    outer loop
      vertex 2.0 -2.0 -2.0
      vertex 2.0 2.0 2.0
      vertex 2.0 -2.0 2.0
    endloop
  endfacet
  facet normal 0.0 -1.0 0.0
    outer loop
      vertex -2.0 -2.0 -2.0
      vertex 2.0 -2.0 -2.0
      vertex 2.0 -2.0 2.0
    endloop
  endfacet
  facet normal 0.0 -1.0 0.0
    outer loop
      vertex -2.0 -2.0 -2.0
      vertex 2.0 -2.0 2.0
      vertex -2.0 -2.0 2.0
    endloop
  endfacet
  facet normal 0.0 1.0 0.0
    outer loop
      vertex -2.0 2.0 -2.0
      vertex -2.0 2.0 2.0
      vertex 2.0 2.0 2.0
    endloop
  endfacet
  facet normal 0.0 1.0 0.0
    outer loop
      vertex -2.0 2.0 -2.0
      vertex 2.0 2.0 2.0
      vertex 2.0 2.0 -2.0
    endloop
  endfacet
  facet normal 0.0 0.0 -1.0
    outer loop
      vertex -2.0 -2.0 -2.0
      vertex -2.0 2.0 -2.0
      vertex 2.0 2.0 -2.0
    endloop
  endfacet
  facet normal 0.0 0.0 -1.0
    outer loop
      vertex -2.0 -2.0 -2.0
      vertex 2.0 2.0 -2.0
      vertex 2.0 -2.0 -2.0
    endloop
  endfacet
  facet normal 0.0 0.0 1.0
    outer loop
      vertex -2.0 -2.0 2.0
      vertex 2.0 -2.0 2.0
      vertex 2.0 2.0 2.0
    endloop
  endfacet
  facet normal 0.0 0.0 1.0
    outer loop
      vertex -2.0 -2.0 2.0
      vertex 2.0 2.0 2.0
      vertex -2.0 2.0 2.0
    endloop
  endfacet
endsolid v3d.csg
