solid v3d.csg
  facet normal -1.6930901125533636E-16 1.0 -5.551115123125784E-17
    outer loop
      vertex -2.7755575615629E-17 0.4999999999999999 63.0
      vertex -8.326672684688679E-17 0.49999999999999994 64.0
      vertex 20.0 0.5000000000000033 64.0
    endloop
  endfacet
  facet normal -1.6930901125533636E-16 1.0 -5.551115123125784E-17
    outer loop
      vertex -2.7755575615629E-17 0.4999999999999999 63.0
      vertex 20.0 0.5000000000000033 64.0
      vertex 20.0 0.5000000000000032 63.0
    endloop
  endfacet
  facet normal 1.6653345369377348E-16 -1.0 5.551115123125783E-17
    outer loop
      vertex 2.498001805406601E-16 -0.5000000000000001 63.0
      vertex 20.0 -0.4999999999999968 63.0
      vertex 20.0 -0.4999999999999967 64.0
    endloop
  endfacet
  facet normal 1.6653345369377348E-16 -1.0 5.551115123125783E-17
    outer loop
      vertex 2.498001805406601E-16 -0.5000000000000001 63.0
      vertex 20.0 -0.4999999999999967 64.0
      vertex 1.9428902930940235E-16 -0.5 64.0
    endloop
  endfacet
  facet normal -1.0 -2.7755575615628914E-16 -5.551115123125773E-17
    outer loop
      vertex -2.7755575615629E-17 0.4999999999999999 63.0
      vertex 2.498001805406601E-16 -0.5000000000000001 63.0
      vertex 1.9428902930940235E-16 -0.5 64.0
    endloop
  endfacet
  facet normal -1.0 -2.7755575615628914E-16 -5.551115123125773E-17
    outer loop
      vertex -2.7755575615629E-17 0.4999999999999999 63.0
      vertex 1.9428902930940235E-16 -0.5 64.0
      vertex -8.326672684688679E-17 0.49999999999999994 64.0
    endloop
  endfacet
  facet normal 1.0 0.0 -0.0
    outer loop
      vertex 20.0 0.5000000000000032 63.0
      vertex 20.0 0.5000000000000033 64.0
      vertex 20.0 -0.4999999999999967 64.0
    endloop
  endfacet
  facet normal 1.0 0.0 -0.0
    outer loop
      vertex 20.0 0.5000000000000032 63.0
      vertex 20.0 -0.4999999999999967 64.0
      vertex 20.0 -0.4999999999999968 63.0
    endloop
  endfacet
  facet normal 0.0 0.0 -1.0
    outer loop
      vertex -2.7755575615629E-17 0.4999999999999999 63.0
      vertex 20.0 0.5000000000000032 63.0
      vertex 20.0 -0.4999999999999968 63.0
    endloop
  endfacet
  facet normal 0.0 0.0 -1.0
    outer loop
      vertex -2.7755575615629E-17 0.4999999999999999 63.0
      vertex 20.0 -0.4999999999999968 63.0
      vertex 2.498001805406601E-16 -0.5000000000000001 63.0
    endloop
  endfacet
  facet normal 0.0 0.0 1.0
    outer loop
      vertex -8.326672684688679E-17 0.49999999999999994 64.0
      vertex 1.9428902930940235E-16 -0.5 64.0
      vertex 20.0 -0.4999999999999967 64.0
    endloop
  endfacet
  facet normal 0.0 0.0 1.0
    outer loop
      vertex -8.326672684688679E-17 0.49999999999999994 64.0
      vertex 20.0 -0.4999999999999967 64.0
      vertex 20.0 0.5000000000000033 64.0
    endloop
  endfacet
endsolid v3d.csg
