solid v3d.csg
  facet normal 0.19494359482964702 0.9800476330240645 0.0387766919530659
    outer loop
      vertex 0.0 1.0 0.0
      vertex 0.3535533905932738 0.9238795325112867 0.14644660940672624
      vertex 0.3826834323650898 0.9238795325112867 0.0
    endloop
  endfacet
  facet normal 0.5522085656517689 0.8264385215476812 0.10984111308111859
    outer loop
      vertex 0.3826834323650898 0.9238795325112867 0.0
      vertex 0.3535533905932738 0.9238795325112867 0.14644660940672624
      vertex 0.6532814824381882 0.7071067811865476 0.27059805007309845
    endloop
  endfacet
  facet normal 0.5522085656517689 0.8264385215476812 0.10984111308111859
    outer loop
      vertex 0.3826834323650898 0.9238795325112867 0.0
      vertex 0.6532814824381882 0.7071067811865476 0.27059805007309845
      vertex 0.7071067811865475 0.7071067811865476 0.0
    endloop
  endfacet
  facet normal 0.8203258243119302 0.5481241919387719 0.16317295173655555
    outer loop
      vertex 0.7071067811865475 0.7071067811865476 0.0
      vertex 0.6532814824381882 0.7071067811865476 0.27059805007309845
      vertex 0.8535533905932737 0.38268343236508984 0.3535533905932738
    endloop
  endfacet
  facet normal 0.8203258243119302 0.5481241919387719 0.16317295173655555
    outer loop
      vertex 0.7071067811865475 0.7071067811865476 0.0
      vertex 0.8535533905932737 0.38268343236508984 0.3535533905932738
      vertex 0.9238795325112867 0.38268343236508984 0.0
    endloop
  endfacet
  facet normal 0.9626372481397794 0.19148045395532282 0.19148045395532282
    outer loop
      vertex 0.9238795325112867 0.38268343236508984 0.0
      vertex 0.8535533905932737 0.38268343236508984 0.3535533905932738
      vertex 0.9238795325112867 6.123233995736766E-17 0.3826834323650898
    endloop
  endfacet
  facet normal 0.9626372481397794 0.19148045395532282 0.19148045395532282
    outer loop
      vertex 0.9238795325112867 0.38268343236508984 0.0
      vertex 0.9238795325112867 6.123233995736766E-17 0.3826834323650898
      vertex 1.0 6.123233995736766E-17 0.0
    endloop
  endfacet
  facet normal 0.9626372481397792 -0.1914804539553228 0.19148045395532282
    outer loop
      vertex 1.0 6.123233995736766E-17 0.0
      vertex 0.9238795325112867 6.123233995736766E-17 0.3826834323650898
      vertex 0.8535533905932737 -0.3826834323650897 0.3535533905932738
    endloop
  endfacet
  facet normal 0.9626372481397792 -0.1914804539553228 0.19148045395532282
    outer loop
      vertex 1.0 6.123233995736766E-17 0.0
      vertex 0.8535533905932737 -0.3826834323650897 0.3535533905932738
      vertex 0.9238795325112867 -0.3826834323650897 0.0
    endloop
  endfacet
  facet normal 0.8203258243119305 -0.5481241919387717 0.16317295173655552
    outer loop
      vertex 0.9238795325112867 -0.3826834323650897 0.0
      vertex 0.8535533905932737 -0.3826834323650897 0.3535533905932738
      vertex 0.6532814824381883 -0.7071067811865475 0.2705980500730985
    endloop
  endfacet
  facet normal 0.8203258243119305 -0.5481241919387717 0.16317295173655552
    outer loop
      vertex 0.9238795325112867 -0.3826834323650897 0.0
      vertex 0.6532814824381883 -0.7071067811865475 0.2705980500730985
      vertex 0.7071067811865476 -0.7071067811865475 0.0
    endloop
  endfacet
  facet normal 0.5522085656517689 -0.8264385215476812 0.1098411130811187
    outer loop
      vertex 0.7071067811865476 -0.7071067811865475 0.0
      vertex 0.6532814824381883 -0.7071067811865475 0.2705980500730985
      vertex 0.35355339059327384 -0.9238795325112867 0.1464466094067263
    endloop
  endfacet
  facet normal 0.5522085656517689 -0.8264385215476812 0.1098411130811187
    outer loop
      vertex 0.7071067811865476 -0.7071067811865475 0.0
      vertex 0.35355339059327384 -0.9238795325112867 0.1464466094067263
      vertex 0.3826834323650899 -0.9238795325112867 0.0
    endloop
  endfacet
  facet normal 0.194943594829647 -0.9800476330240645 0.03877669195306598
    outer loop
      vertex 0.3826834323650899 -0.9238795325112867 0.0
      vertex 0.35355339059327384 -0.9238795325112867 0.1464466094067263
      vertex 1.2246467991473532E-16 -1.0 0.0
    endloop
  endfacet
  facet normal 0.1652651996849209 0.9800476330240645 0.11042667602093147
    outer loop
      vertex 0.0 1.0 0.0
      vertex 0.2705980500730985 0.9238795325112867 0.27059805007309845
      vertex 0.3535533905932738 0.9238795325112867 0.14644660940672624
    endloop
  endfacet
  facet normal 0.46813981731439974 0.8264385215476813 0.3128010254889252
    outer loop
      vertex 0.3535533905932738 0.9238795325112867 0.14644660940672624
      vertex 0.2705980500730985 0.9238795325112867 0.27059805007309845
      vertex 0.5 0.7071067811865476 0.4999999999999999
    endloop
  endfacet
  facet normal 0.46813981731439974 0.8264385215476813 0.3128010254889252
    outer loop
      vertex 0.3535533905932738 0.9238795325112867 0.14644660940672624
      vertex 0.5 0.7071067811865476 0.4999999999999999
      vertex 0.6532814824381882 0.7071067811865476 0.27059805007309845
    endloop
  endfacet
  facet normal 0.6954386538325541 0.5481241919387719 0.4646772524742667
    outer loop
      vertex 0.6532814824381882 0.7071067811865476 0.27059805007309845
      vertex 0.5 0.7071067811865476 0.4999999999999999
      vertex 0.6532814824381883 0.38268343236508984 0.6532814824381882
    endloop
  endfacet
  facet normal 0.6954386538325541 0.5481241919387719 0.4646772524742667
    outer loop
      vertex 0.6532814824381882 0.7071067811865476 0.27059805007309845
      vertex 0.6532814824381883 0.38268343236508984 0.6532814824381882
      vertex 0.8535533905932737 0.38268343236508984 0.3535533905932738
    endloop
  endfacet
  facet normal 0.8160844534388823 0.19148045395532282 0.5452901985259079
    outer loop
      vertex 0.8535533905932737 0.38268343236508984 0.3535533905932738
      vertex 0.6532814824381883 0.38268343236508984 0.6532814824381882
      vertex 0.7071067811865476 6.123233995736766E-17 0.7071067811865475
    endloop
  endfacet
  facet normal 0.8160844534388823 0.19148045395532282 0.5452901985259079
    outer loop
      vertex 0.8535533905932737 0.38268343236508984 0.3535533905932738
      vertex 0.7071067811865476 6.123233995736766E-17 0.7071067811865475
      vertex 0.9238795325112867 6.123233995736766E-17 0.3826834323650898
    endloop
  endfacet
  facet normal 0.8160844534388823 -0.19148045395532287 0.5452901985259079
    outer loop
      vertex 0.9238795325112867 6.123233995736766E-17 0.3826834323650898
      vertex 0.7071067811865476 6.123233995736766E-17 0.7071067811865475
      vertex 0.6532814824381883 -0.3826834323650897 0.6532814824381882
    endloop
  endfacet
  facet normal 0.8160844534388823 -0.19148045395532287 0.5452901985259079
    outer loop
      vertex 0.9238795325112867 6.123233995736766E-17 0.3826834323650898
      vertex 0.6532814824381883 -0.3826834323650897 0.6532814824381882
      vertex 0.8535533905932737 -0.3826834323650897 0.3535533905932738
    endloop
  endfacet
  facet normal 0.6954386538325541 -0.5481241919387716 0.46467725247426694
    outer loop
      vertex 0.8535533905932737 -0.3826834323650897 0.3535533905932738
      vertex 0.6532814824381883 -0.3826834323650897 0.6532814824381882
      vertex 0.5000000000000001 -0.7071067811865475 0.5
    endloop
  endfacet
  facet normal 0.6954386538325541 -0.5481241919387716 0.46467725247426694
    outer loop
      vertex 0.8535533905932737 -0.3826834323650897 0.3535533905932738
      vertex 0.5000000000000001 -0.7071067811865475 0.5
      vertex 0.6532814824381883 -0.7071067811865475 0.2705980500730985
    endloop
  endfacet
  facet normal 0.46813981731440013 -0.826438521547681 0.3128010254889252
    outer loop
      vertex 0.6532814824381883 -0.7071067811865475 0.2705980500730985
      vertex 0.5000000000000001 -0.7071067811865475 0.5
      vertex 0.2705980500730986 -0.9238795325112867 0.27059805007309856
    endloop
  endfacet
  facet normal 0.46813981731440013 -0.826438521547681 0.3128010254889252
    outer loop
      vertex 0.6532814824381883 -0.7071067811865475 0.2705980500730985
      vertex 0.2705980500730986 -0.9238795325112867 0.27059805007309856
      vertex 0.35355339059327384 -0.9238795325112867 0.1464466094067263
    endloop
  endfacet
  facet normal 0.165265199684921 -0.9800476330240646 0.1104266760209314
    outer loop
      vertex 0.35355339059327384 -0.9238795325112867 0.1464466094067263
      vertex 0.2705980500730986 -0.9238795325112867 0.27059805007309856
      vertex 1.1314261122877003E-16 -1.0 4.6865204053262986E-17
    endloop
  endfacet
  facet normal 0.11042667602093154 0.9800476330240645 0.1652651996849209
    outer loop
      vertex 0.0 1.0 0.0
      vertex 0.14644660940672627 0.9238795325112867 0.3535533905932738
      vertex 0.2705980500730985 0.9238795325112867 0.27059805007309845
    endloop
  endfacet
  facet normal 0.3128010254889254 0.8264385215476812 0.4681398173143998
    outer loop
      vertex 0.2705980500730985 0.9238795325112867 0.27059805007309845
      vertex 0.14644660940672627 0.9238795325112867 0.3535533905932738
      vertex 0.2705980500730985 0.7071067811865476 0.6532814824381882
    endloop
  endfacet
  facet normal 0.3128010254889254 0.8264385215476812 0.4681398173143998
    outer loop
      vertex 0.2705980500730985 0.9238795325112867 0.27059805007309845
      vertex 0.2705980500730985 0.7071067811865476 0.6532814824381882
      vertex 0.5 0.7071067811865476 0.4999999999999999
    endloop
  endfacet
  facet normal 0.46467725247426683 0.5481241919387719 0.695438653832554
    outer loop
      vertex 0.5 0.7071067811865476 0.4999999999999999
      vertex 0.2705980500730985 0.7071067811865476 0.6532814824381882
      vertex 0.35355339059327384 0.38268343236508984 0.8535533905932737
    endloop
  endfacet
  facet normal 0.46467725247426683 0.5481241919387719 0.695438653832554
    outer loop
      vertex 0.5 0.7071067811865476 0.4999999999999999
      vertex 0.35355339059327384 0.38268343236508984 0.8535533905932737
      vertex 0.6532814824381883 0.38268343236508984 0.6532814824381882
    endloop
  endfacet
  facet normal 0.5452901985259081 0.19148045395532282 0.8160844534388823
    outer loop
      vertex 0.6532814824381883 0.38268343236508984 0.6532814824381882
      vertex 0.35355339059327384 0.38268343236508984 0.8535533905932737
      vertex 0.38268343236508984 6.123233995736766E-17 0.9238795325112867
    endloop
  endfacet
  facet normal 0.5452901985259081 0.19148045395532282 0.8160844534388823
    outer loop
      vertex 0.6532814824381883 0.38268343236508984 0.6532814824381882
      vertex 0.38268343236508984 6.123233995736766E-17 0.9238795325112867
      vertex 0.7071067811865476 6.123233995736766E-17 0.7071067811865475
    endloop
  endfacet
  facet normal 0.5452901985259081 -0.19148045395532282 0.8160844534388824
    outer loop
      vertex 0.7071067811865476 6.123233995736766E-17 0.7071067811865475
      vertex 0.38268343236508984 6.123233995736766E-17 0.9238795325112867
      vertex 0.35355339059327384 -0.3826834323650897 0.8535533905932737
    endloop
  endfacet
  facet normal 0.5452901985259081 -0.19148045395532282 0.8160844534388824
    outer loop
      vertex 0.7071067811865476 6.123233995736766E-17 0.7071067811865475
      vertex 0.35355339059327384 -0.3826834323650897 0.8535533905932737
      vertex 0.6532814824381883 -0.3826834323650897 0.6532814824381882
    endloop
  endfacet
  facet normal 0.46467725247426706 -0.5481241919387718 0.695438653832554
    outer loop
      vertex 0.6532814824381883 -0.3826834323650897 0.6532814824381882
      vertex 0.35355339059327384 -0.3826834323650897 0.8535533905932737
      vertex 0.27059805007309856 -0.7071067811865475 0.6532814824381883
    endloop
  endfacet
  facet normal 0.46467725247426706 -0.5481241919387718 0.695438653832554
    outer loop
      vertex 0.6532814824381883 -0.3826834323650897 0.6532814824381882
      vertex 0.27059805007309856 -0.7071067811865475 0.6532814824381883
      vertex 0.5000000000000001 -0.7071067811865475 0.5
    endloop
  endfacet
  facet normal 0.3128010254889252 -0.8264385215476812 0.4681398173144
    outer loop
      vertex 0.5000000000000001 -0.7071067811865475 0.5
      vertex 0.27059805007309856 -0.7071067811865475 0.6532814824381883
      vertex 0.1464466094067263 -0.9238795325112867 0.35355339059327384
    endloop
  endfacet
  facet normal 0.3128010254889252 -0.8264385215476812 0.4681398173144
    outer loop
      vertex 0.5000000000000001 -0.7071067811865475 0.5
      vertex 0.1464466094067263 -0.9238795325112867 0.35355339059327384
      vertex 0.2705980500730986 -0.9238795325112867 0.27059805007309856
    endloop
  endfacet
  facet normal 0.11042667602093144 -0.9800476330240646 0.165265199684921
    outer loop
      vertex 0.2705980500730986 -0.9238795325112867 0.27059805007309856
      vertex 0.1464466094067263 -0.9238795325112867 0.35355339059327384
      vertex 8.659560562354934E-17 -1.0 8.659560562354932E-17
    endloop
  endfacet
  facet normal 0.0387766919530659 0.9800476330240645 0.19494359482964702
    outer loop
      vertex 0.0 1.0 0.0
      vertex 2.3432602026631493E-17 0.9238795325112867 0.3826834323650898
      vertex 0.14644660940672627 0.9238795325112867 0.3535533905932738
    endloop
  endfacet
  facet normal 0.10984111308111857 0.8264385215476813 0.5522085656517688
    outer loop
      vertex 0.14644660940672627 0.9238795325112867 0.3535533905932738
      vertex 2.3432602026631493E-17 0.9238795325112867 0.3826834323650898
      vertex 4.329780281177466E-17 0.7071067811865476 0.7071067811865475
    endloop
  endfacet
  facet normal 0.10984111308111857 0.8264385215476813 0.5522085656517688
    outer loop
      vertex 0.14644660940672627 0.9238795325112867 0.3535533905932738
      vertex 4.329780281177466E-17 0.7071067811865476 0.7071067811865475
      vertex 0.2705980500730985 0.7071067811865476 0.6532814824381882
    endloop
  endfacet
  facet normal 0.16317295173655558 0.5481241919387718 0.8203258243119304
    outer loop
      vertex 0.2705980500730985 0.7071067811865476 0.6532814824381882
      vertex 4.329780281177466E-17 0.7071067811865476 0.7071067811865475
      vertex 5.657130561438501E-17 0.38268343236508984 0.9238795325112867
    endloop
  endfacet
  facet normal 0.16317295173655558 0.5481241919387718 0.8203258243119304
    outer loop
      vertex 0.2705980500730985 0.7071067811865476 0.6532814824381882
      vertex 5.657130561438501E-17 0.38268343236508984 0.9238795325112867
      vertex 0.35355339059327384 0.38268343236508984 0.8535533905932737
    endloop
  endfacet
  facet normal 0.19148045395532282 0.19148045395532282 0.9626372481397794
    outer loop
      vertex 0.35355339059327384 0.38268343236508984 0.8535533905932737
      vertex 5.657130561438501E-17 0.38268343236508984 0.9238795325112867
      vertex 6.123233995736766E-17 6.123233995736766E-17 1.0
    endloop
  endfacet
  facet normal 0.19148045395532282 0.19148045395532282 0.9626372481397794
    outer loop
      vertex 0.35355339059327384 0.38268343236508984 0.8535533905932737
      vertex 6.123233995736766E-17 6.123233995736766E-17 1.0
      vertex 0.38268343236508984 6.123233995736766E-17 0.9238795325112867
    endloop
  endfacet
  facet normal 0.19148045395532282 -0.19148045395532282 0.9626372481397792
    outer loop
      vertex 0.38268343236508984 6.123233995736766E-17 0.9238795325112867
      vertex 6.123233995736766E-17 6.123233995736766E-17 1.0
      vertex 5.657130561438501E-17 -0.3826834323650897 0.9238795325112867
    endloop
  endfacet
  facet normal 0.19148045395532282 -0.19148045395532282 0.9626372481397792
    outer loop
      vertex 0.38268343236508984 6.123233995736766E-17 0.9238795325112867
      vertex 5.657130561438501E-17 -0.3826834323650897 0.9238795325112867
      vertex 0.35355339059327384 -0.3826834323650897 0.8535533905932737
    endloop
  endfacet
  facet normal 0.16317295173655552 -0.5481241919387717 0.8203258243119305
    outer loop
      vertex 0.35355339059327384 -0.3826834323650897 0.8535533905932737
      vertex 5.657130561438501E-17 -0.3826834323650897 0.9238795325112867
      vertex 4.329780281177467E-17 -0.7071067811865475 0.7071067811865476
    endloop
  endfacet
  facet normal 0.16317295173655552 -0.5481241919387717 0.8203258243119305
    outer loop
      vertex 0.35355339059327384 -0.3826834323650897 0.8535533905932737
      vertex 4.329780281177467E-17 -0.7071067811865475 0.7071067811865476
      vertex 0.27059805007309856 -0.7071067811865475 0.6532814824381883
    endloop
  endfacet
  facet normal 0.10984111308111871 -0.826438521547681 0.552208565651769
    outer loop
      vertex 0.27059805007309856 -0.7071067811865475 0.6532814824381883
      vertex 4.329780281177467E-17 -0.7071067811865475 0.7071067811865476
      vertex 2.34326020266315E-17 -0.9238795325112867 0.3826834323650899
    endloop
  endfacet
  facet normal 0.10984111308111871 -0.826438521547681 0.552208565651769
    outer loop
      vertex 0.27059805007309856 -0.7071067811865475 0.6532814824381883
      vertex 2.34326020266315E-17 -0.9238795325112867 0.3826834323650899
      vertex 0.1464466094067263 -0.9238795325112867 0.35355339059327384
    endloop
  endfacet
  facet normal 0.03877669195306599 -0.9800476330240645 0.19494359482964702
    outer loop
      vertex 0.1464466094067263 -0.9238795325112867 0.35355339059327384
      vertex 2.34326020266315E-17 -0.9238795325112867 0.3826834323650899
      vertex 4.686520405326299E-17 -1.0 1.1314261122877003E-16
    endloop
  endfacet
  facet normal -0.0387766919530659 0.9800476330240645 0.19494359482964702
    outer loop
      vertex 0.0 1.0 0.0
      vertex -0.1464466094067262 0.9238795325112867 0.3535533905932738
      vertex 2.3432602026631493E-17 0.9238795325112867 0.3826834323650898
    endloop
  endfacet
  facet normal -0.10984111308111859 0.8264385215476812 0.5522085656517689
    outer loop
      vertex 2.3432602026631493E-17 0.9238795325112867 0.3826834323650898
      vertex -0.1464466094067262 0.9238795325112867 0.3535533905932738
      vertex -0.27059805007309845 0.7071067811865476 0.6532814824381882
    endloop
  endfacet
  facet normal -0.10984111308111859 0.8264385215476812 0.5522085656517689
    outer loop
      vertex 2.3432602026631493E-17 0.9238795325112867 0.3826834323650898
      vertex -0.27059805007309845 0.7071067811865476 0.6532814824381882
      vertex 4.329780281177466E-17 0.7071067811865476 0.7071067811865475
    endloop
  endfacet
  facet normal -0.16317295173655552 0.5481241919387719 0.8203258243119304
    outer loop
      vertex 4.329780281177466E-17 0.7071067811865476 0.7071067811865475
      vertex -0.27059805007309845 0.7071067811865476 0.6532814824381882
      vertex -0.35355339059327373 0.38268343236508984 0.8535533905932737
    endloop
  endfacet
  facet normal -0.16317295173655552 0.5481241919387719 0.8203258243119304
    outer loop
      vertex 4.329780281177466E-17 0.7071067811865476 0.7071067811865475
      vertex -0.35355339059327373 0.38268343236508984 0.8535533905932737
      vertex 5.657130561438501E-17 0.38268343236508984 0.9238795325112867
    endloop
  endfacet
  facet normal -0.19148045395532282 0.19148045395532282 0.9626372481397794
    outer loop
      vertex 5.657130561438501E-17 0.38268343236508984 0.9238795325112867
      vertex -0.35355339059327373 0.38268343236508984 0.8535533905932737
      vertex -0.3826834323650897 6.123233995736766E-17 0.9238795325112867
    endloop
  endfacet
  facet normal -0.19148045395532282 0.19148045395532282 0.9626372481397794
    outer loop
      vertex 5.657130561438501E-17 0.38268343236508984 0.9238795325112867
      vertex -0.3826834323650897 6.123233995736766E-17 0.9238795325112867
      vertex 6.123233995736766E-17 6.123233995736766E-17 1.0
    endloop
  endfacet
  facet normal -0.19148045395532282 -0.1914804539553228 0.9626372481397792
    outer loop
      vertex 6.123233995736766E-17 6.123233995736766E-17 1.0
      vertex -0.3826834323650897 6.123233995736766E-17 0.9238795325112867
      vertex -0.35355339059327373 -0.3826834323650897 0.8535533905932737
    endloop
  endfacet
  facet normal -0.19148045395532282 -0.1914804539553228 0.9626372481397792
    outer loop
      vertex 6.123233995736766E-17 6.123233995736766E-17 1.0
      vertex -0.35355339059327373 -0.3826834323650897 0.8535533905932737
      vertex 5.657130561438501E-17 -0.3826834323650897 0.9238795325112867
    endloop
  endfacet
  facet normal -0.16317295173655552 -0.5481241919387717 0.8203258243119305
    outer loop
      vertex 5.657130561438501E-17 -0.3826834323650897 0.9238795325112867
      vertex -0.35355339059327373 -0.3826834323650897 0.8535533905932737
      vertex -0.2705980500730985 -0.7071067811865475 0.6532814824381883
    endloop
  endfacet
  facet normal -0.16317295173655552 -0.5481241919387717 0.8203258243119305
    outer loop
      vertex 5.657130561438501E-17 -0.3826834323650897 0.9238795325112867
      vertex -0.2705980500730985 -0.7071067811865475 0.6532814824381883
      vertex 4.329780281177467E-17 -0.7071067811865475 0.7071067811865476
    endloop
  endfacet
  facet normal -0.10984111308111867 -0.826438521547681 0.5522085656517689
    outer loop
      vertex 4.329780281177467E-17 -0.7071067811865475 0.7071067811865476
      vertex -0.2705980500730985 -0.7071067811865475 0.6532814824381883
      vertex -0.14644660940672627 -0.9238795325112867 0.35355339059327384
    endloop
  endfacet
  facet normal -0.10984111308111867 -0.826438521547681 0.5522085656517689
    outer loop
      vertex 4.329780281177467E-17 -0.7071067811865475 0.7071067811865476
      vertex -0.14644660940672627 -0.9238795325112867 0.35355339059327384
      vertex 2.34326020266315E-17 -0.9238795325112867 0.3826834323650899
    endloop
  endfacet
  facet normal -0.03877669195306598 -0.9800476330240645 0.194943594829647
    outer loop
      vertex 2.34326020266315E-17 -0.9238795325112867 0.3826834323650899
      vertex -0.14644660940672627 -0.9238795325112867 0.35355339059327384
      vertex 7.498798913309288E-33 -1.0 1.2246467991473532E-16
    endloop
  endfacet
  facet normal -0.11042667602093147 0.9800476330240646 0.16526519968492095
    outer loop
      vertex 0.0 1.0 0.0
      vertex -0.27059805007309845 0.9238795325112867 0.2705980500730985
      vertex -0.1464466094067262 0.9238795325112867 0.3535533905932738
    endloop
  endfacet
  facet normal -0.3128010254889252 0.8264385215476813 0.4681398173143998
    outer loop
      vertex -0.1464466094067262 0.9238795325112867 0.3535533905932738
      vertex -0.27059805007309845 0.9238795325112867 0.2705980500730985
      vertex -0.4999999999999999 0.7071067811865476 0.5
    endloop
  endfacet
  facet normal -0.3128010254889252 0.8264385215476813 0.4681398173143998
    outer loop
      vertex -0.1464466094067262 0.9238795325112867 0.3535533905932738
      vertex -0.4999999999999999 0.7071067811865476 0.5
      vertex -0.27059805007309845 0.7071067811865476 0.6532814824381882
    endloop
  endfacet
  facet normal -0.4646772524742667 0.5481241919387719 0.6954386538325541
    outer loop
      vertex -0.27059805007309845 0.7071067811865476 0.6532814824381882
      vertex -0.4999999999999999 0.7071067811865476 0.5
      vertex -0.6532814824381882 0.38268343236508984 0.6532814824381883
    endloop
  endfacet
  facet normal -0.4646772524742667 0.5481241919387719 0.6954386538325541
    outer loop
      vertex -0.27059805007309845 0.7071067811865476 0.6532814824381882
      vertex -0.6532814824381882 0.38268343236508984 0.6532814824381883
      vertex -0.35355339059327373 0.38268343236508984 0.8535533905932737
    endloop
  endfacet
  facet normal -0.5452901985259079 0.19148045395532284 0.8160844534388824
    outer loop
      vertex -0.35355339059327373 0.38268343236508984 0.8535533905932737
      vertex -0.6532814824381882 0.38268343236508984 0.6532814824381883
      vertex -0.7071067811865475 6.123233995736766E-17 0.7071067811865476
    endloop
  endfacet
  facet normal -0.5452901985259079 0.19148045395532284 0.8160844534388824
    outer loop
      vertex -0.35355339059327373 0.38268343236508984 0.8535533905932737
      vertex -0.7071067811865475 6.123233995736766E-17 0.7071067811865476
      vertex -0.3826834323650897 6.123233995736766E-17 0.9238795325112867
    endloop
  endfacet
  facet normal -0.5452901985259079 -0.19148045395532287 0.8160844534388825
    outer loop
      vertex -0.3826834323650897 6.123233995736766E-17 0.9238795325112867
      vertex -0.7071067811865475 6.123233995736766E-17 0.7071067811865476
      vertex -0.6532814824381882 -0.3826834323650897 0.6532814824381883
    endloop
  endfacet
  facet normal -0.5452901985259079 -0.19148045395532287 0.8160844534388825
    outer loop
      vertex -0.3826834323650897 6.123233995736766E-17 0.9238795325112867
      vertex -0.6532814824381882 -0.3826834323650897 0.6532814824381883
      vertex -0.35355339059327373 -0.3826834323650897 0.8535533905932737
    endloop
  endfacet
  facet normal -0.46467725247426694 -0.5481241919387717 0.6954386538325542
    outer loop
      vertex -0.35355339059327373 -0.3826834323650897 0.8535533905932737
      vertex -0.6532814824381882 -0.3826834323650897 0.6532814824381883
      vertex -0.5 -0.7071067811865475 0.5000000000000001
    endloop
  endfacet
  facet normal -0.46467725247426694 -0.5481241919387717 0.6954386538325542
    outer loop
      vertex -0.35355339059327373 -0.3826834323650897 0.8535533905932737
      vertex -0.5 -0.7071067811865475 0.5000000000000001
      vertex -0.2705980500730985 -0.7071067811865475 0.6532814824381883
    endloop
  endfacet
  facet normal -0.3128010254889252 -0.826438521547681 0.46813981731440013
    outer loop
      vertex -0.2705980500730985 -0.7071067811865475 0.6532814824381883
      vertex -0.5 -0.7071067811865475 0.5000000000000001
      vertex -0.27059805007309856 -0.9238795325112867 0.2705980500730986
    endloop
  endfacet
  facet normal -0.3128010254889252 -0.826438521547681 0.46813981731440013
    outer loop
      vertex -0.2705980500730985 -0.7071067811865475 0.6532814824381883
      vertex -0.27059805007309856 -0.9238795325112867 0.2705980500730986
      vertex -0.14644660940672627 -0.9238795325112867 0.35355339059327384
    endloop
  endfacet
  facet normal -0.11042667602093137 -0.9800476330240646 0.165265199684921
    outer loop
      vertex -0.14644660940672627 -0.9238795325112867 0.35355339059327384
      vertex -0.27059805007309856 -0.9238795325112867 0.2705980500730986
      vertex -4.6865204053262974E-17 -1.0 1.1314261122877003E-16
    endloop
  endfacet
  facet normal -0.1652651996849209 0.9800476330240645 0.11042667602093155
    outer loop
      vertex 0.0 1.0 0.0
      vertex -0.3535533905932738 0.9238795325112867 0.1464466094067263
      vertex -0.27059805007309845 0.9238795325112867 0.2705980500730985
    endloop
  endfacet
  facet normal -0.46813981731439974 0.8264385215476813 0.31280102548892547
    outer loop
      vertex -0.27059805007309845 0.9238795325112867 0.2705980500730985
      vertex -0.3535533905932738 0.9238795325112867 0.1464466094067263
      vertex -0.6532814824381882 0.7071067811865476 0.27059805007309856
    endloop
  endfacet
  facet normal -0.46813981731439974 0.8264385215476813 0.31280102548892547
    outer loop
      vertex -0.27059805007309845 0.9238795325112867 0.2705980500730985
      vertex -0.6532814824381882 0.7071067811865476 0.27059805007309856
      vertex -0.4999999999999999 0.7071067811865476 0.5
    endloop
  endfacet
  facet normal -0.6954386538325539 0.5481241919387719 0.46467725247426694
    outer loop
      vertex -0.4999999999999999 0.7071067811865476 0.5
      vertex -0.6532814824381882 0.7071067811865476 0.27059805007309856
      vertex -0.8535533905932737 0.38268343236508984 0.35355339059327384
    endloop
  endfacet
  facet normal -0.6954386538325539 0.5481241919387719 0.46467725247426694
    outer loop
      vertex -0.4999999999999999 0.7071067811865476 0.5
      vertex -0.8535533905932737 0.38268343236508984 0.35355339059327384
      vertex -0.6532814824381882 0.38268343236508984 0.6532814824381883
    endloop
  endfacet
  facet normal -0.8160844534388823 0.19148045395532287 0.5452901985259081
    outer loop
      vertex -0.6532814824381882 0.38268343236508984 0.6532814824381883
      vertex -0.8535533905932737 0.38268343236508984 0.35355339059327384
      vertex -0.9238795325112867 6.123233995736766E-17 0.3826834323650899
    endloop
  endfacet
  facet normal -0.8160844534388823 0.19148045395532287 0.5452901985259081
    outer loop
      vertex -0.6532814824381882 0.38268343236508984 0.6532814824381883
      vertex -0.9238795325112867 6.123233995736766E-17 0.3826834323650899
      vertex -0.7071067811865475 6.123233995736766E-17 0.7071067811865476
    endloop
  endfacet
  facet normal -0.8160844534388823 -0.1914804539553229 0.5452901985259082
    outer loop
      vertex -0.7071067811865475 6.123233995736766E-17 0.7071067811865476
      vertex -0.9238795325112867 6.123233995736766E-17 0.3826834323650899
      vertex -0.8535533905932737 -0.3826834323650897 0.35355339059327384
    endloop
  endfacet
  facet normal -0.8160844534388823 -0.1914804539553229 0.5452901985259082
    outer loop
      vertex -0.7071067811865475 6.123233995736766E-17 0.7071067811865476
      vertex -0.8535533905932737 -0.3826834323650897 0.35355339059327384
      vertex -0.6532814824381882 -0.3826834323650897 0.6532814824381883
    endloop
  endfacet
  facet normal -0.695438653832554 -0.5481241919387717 0.46467725247426706
    outer loop
      vertex -0.6532814824381882 -0.3826834323650897 0.6532814824381883
      vertex -0.8535533905932737 -0.3826834323650897 0.35355339059327384
      vertex -0.6532814824381883 -0.7071067811865475 0.2705980500730986
    endloop
  endfacet
  facet normal -0.695438653832554 -0.5481241919387717 0.46467725247426706
    outer loop
      vertex -0.6532814824381882 -0.3826834323650897 0.6532814824381883
      vertex -0.6532814824381883 -0.7071067811865475 0.2705980500730986
      vertex -0.5 -0.7071067811865475 0.5000000000000001
    endloop
  endfacet
  facet normal -0.4681398173144 -0.826438521547681 0.3128010254889253
    outer loop
      vertex -0.5 -0.7071067811865475 0.5000000000000001
      vertex -0.6532814824381883 -0.7071067811865475 0.2705980500730986
      vertex -0.35355339059327384 -0.9238795325112867 0.14644660940672632
    endloop
  endfacet
  facet normal -0.4681398173144 -0.826438521547681 0.3128010254889253
    outer loop
      vertex -0.5 -0.7071067811865475 0.5000000000000001
      vertex -0.35355339059327384 -0.9238795325112867 0.14644660940672632
      vertex -0.27059805007309856 -0.9238795325112867 0.2705980500730986
    endloop
  endfacet
  facet normal -0.16526519968492095 -0.9800476330240645 0.11042667602093142
    outer loop
      vertex -0.27059805007309856 -0.9238795325112867 0.2705980500730986
      vertex -0.35355339059327384 -0.9238795325112867 0.14644660940672632
      vertex -8.659560562354932E-17 -1.0 8.659560562354934E-17
    endloop
  endfacet
  facet normal -0.194943594829647 0.9800476330240645 0.03877669195306589
    outer loop
      vertex 0.0 1.0 0.0
      vertex -0.3826834323650898 0.9238795325112867 4.6865204053262986E-17
      vertex -0.3535533905932738 0.9238795325112867 0.1464466094067263
    endloop
  endfacet
  facet normal -0.5522085656517688 0.8264385215476813 0.10984111308111857
    outer loop
      vertex -0.3535533905932738 0.9238795325112867 0.1464466094067263
      vertex -0.3826834323650898 0.9238795325112867 4.6865204053262986E-17
      vertex -0.7071067811865475 0.7071067811865476 8.659560562354932E-17
    endloop
  endfacet
  facet normal -0.5522085656517688 0.8264385215476813 0.10984111308111857
    outer loop
      vertex -0.3535533905932738 0.9238795325112867 0.1464466094067263
      vertex -0.7071067811865475 0.7071067811865476 8.659560562354932E-17
      vertex -0.6532814824381882 0.7071067811865476 0.27059805007309856
    endloop
  endfacet
  facet normal -0.8203258243119304 0.5481241919387718 0.16317295173655558
    outer loop
      vertex -0.6532814824381882 0.7071067811865476 0.27059805007309856
      vertex -0.7071067811865475 0.7071067811865476 8.659560562354932E-17
      vertex -0.9238795325112867 0.38268343236508984 1.1314261122877003E-16
    endloop
  endfacet
  facet normal -0.8203258243119304 0.5481241919387718 0.16317295173655558
    outer loop
      vertex -0.6532814824381882 0.7071067811865476 0.27059805007309856
      vertex -0.9238795325112867 0.38268343236508984 1.1314261122877003E-16
      vertex -0.8535533905932737 0.38268343236508984 0.35355339059327384
    endloop
  endfacet
  facet normal -0.9626372481397792 0.19148045395532282 0.19148045395532284
    outer loop
      vertex -0.8535533905932737 0.38268343236508984 0.35355339059327384
      vertex -0.9238795325112867 0.38268343236508984 1.1314261122877003E-16
      vertex -1.0 6.123233995736766E-17 1.2246467991473532E-16
    endloop
  endfacet
  facet normal -0.9626372481397792 0.19148045395532282 0.19148045395532284
    outer loop
      vertex -0.8535533905932737 0.38268343236508984 0.35355339059327384
      vertex -1.0 6.123233995736766E-17 1.2246467991473532E-16
      vertex -0.9238795325112867 6.123233995736766E-17 0.3826834323650899
    endloop
  endfacet
  facet normal -0.9626372481397792 -0.19148045395532282 0.19148045395532282
    outer loop
      vertex -0.9238795325112867 6.123233995736766E-17 0.3826834323650899
      vertex -1.0 6.123233995736766E-17 1.2246467991473532E-16
      vertex -0.9238795325112867 -0.3826834323650897 1.1314261122877003E-16
    endloop
  endfacet
  facet normal -0.9626372481397792 -0.19148045395532282 0.19148045395532282
    outer loop
      vertex -0.9238795325112867 6.123233995736766E-17 0.3826834323650899
      vertex -0.9238795325112867 -0.3826834323650897 1.1314261122877003E-16
      vertex -0.8535533905932737 -0.3826834323650897 0.35355339059327384
    endloop
  endfacet
  facet normal -0.8203258243119305 -0.5481241919387717 0.16317295173655558
    outer loop
      vertex -0.8535533905932737 -0.3826834323650897 0.35355339059327384
      vertex -0.9238795325112867 -0.3826834323650897 1.1314261122877003E-16
      vertex -0.7071067811865476 -0.7071067811865475 8.659560562354934E-17
    endloop
  endfacet
  facet normal -0.8203258243119305 -0.5481241919387717 0.16317295173655558
    outer loop
      vertex -0.8535533905932737 -0.3826834323650897 0.35355339059327384
      vertex -0.7071067811865476 -0.7071067811865475 8.659560562354934E-17
      vertex -0.6532814824381883 -0.7071067811865475 0.2705980500730986
    endloop
  endfacet
  facet normal -0.552208565651769 -0.826438521547681 0.10984111308111871
    outer loop
      vertex -0.6532814824381883 -0.7071067811865475 0.2705980500730986
      vertex -0.7071067811865476 -0.7071067811865475 8.659560562354934E-17
      vertex -0.3826834323650899 -0.9238795325112867 4.6865204053263E-17
    endloop
  endfacet
  facet normal -0.552208565651769 -0.826438521547681 0.10984111308111871
    outer loop
      vertex -0.6532814824381883 -0.7071067811865475 0.2705980500730986
      vertex -0.3826834323650899 -0.9238795325112867 4.6865204053263E-17
      vertex -0.35355339059327384 -0.9238795325112867 0.14644660940672632
    endloop
  endfacet
  facet normal -0.19494359482964702 -0.9800476330240645 0.03877669195306599
    outer loop
      vertex -0.35355339059327384 -0.9238795325112867 0.14644660940672632
      vertex -0.3826834323650899 -0.9238795325112867 4.6865204053263E-17
      vertex -1.1314261122877003E-16 -1.0 4.6865204053263E-17
    endloop
  endfacet
  facet normal -0.19494359482964702 0.9800476330240645 -0.0387766919530659
    outer loop
      vertex 0.0 1.0 0.0
      vertex -0.3535533905932738 0.9238795325112867 -0.1464466094067262
      vertex -0.3826834323650898 0.9238795325112867 4.6865204053262986E-17
    endloop
  endfacet
  facet normal -0.5522085656517688 0.8264385215476813 -0.10984111308111855
    outer loop
      vertex -0.3826834323650898 0.9238795325112867 4.6865204053262986E-17
      vertex -0.3535533905932738 0.9238795325112867 -0.1464466094067262
      vertex -0.6532814824381883 0.7071067811865476 -0.2705980500730984
    endloop
  endfacet
  facet normal -0.5522085656517688 0.8264385215476813 -0.10984111308111855
    outer loop
      vertex -0.3826834323650898 0.9238795325112867 4.6865204053262986E-17
      vertex -0.6532814824381883 0.7071067811865476 -0.2705980500730984
      vertex -0.7071067811865475 0.7071067811865476 8.659560562354932E-17
    endloop
  endfacet
  facet normal -0.8203258243119305 0.5481241919387719 -0.16317295173655522
    outer loop
      vertex -0.7071067811865475 0.7071067811865476 8.659560562354932E-17
      vertex -0.6532814824381883 0.7071067811865476 -0.2705980500730984
      vertex -0.8535533905932738 0.38268343236508984 -0.3535533905932737
    endloop
  endfacet
  facet normal -0.8203258243119305 0.5481241919387719 -0.16317295173655522
    outer loop
      vertex -0.7071067811865475 0.7071067811865476 8.659560562354932E-17
      vertex -0.8535533905932738 0.38268343236508984 -0.3535533905932737
      vertex -0.9238795325112867 0.38268343236508984 1.1314261122877003E-16
    endloop
  endfacet
  facet normal -0.9626372481397794 0.1914804539553228 -0.1914804539553225
    outer loop
      vertex -0.9238795325112867 0.38268343236508984 1.1314261122877003E-16
      vertex -0.8535533905932738 0.38268343236508984 -0.3535533905932737
      vertex -0.9238795325112868 6.123233995736766E-17 -0.38268343236508967
    endloop
  endfacet
  facet normal -0.9626372481397794 0.1914804539553228 -0.1914804539553225
    outer loop
      vertex -0.9238795325112867 0.38268343236508984 1.1314261122877003E-16
      vertex -0.9238795325112868 6.123233995736766E-17 -0.38268343236508967
      vertex -1.0 6.123233995736766E-17 1.2246467991473532E-16
    endloop
  endfacet
  facet normal -0.9626372481397795 -0.19148045395532282 -0.1914804539553226
    outer loop
      vertex -1.0 6.123233995736766E-17 1.2246467991473532E-16
      vertex -0.9238795325112868 6.123233995736766E-17 -0.38268343236508967
      vertex -0.8535533905932738 -0.3826834323650897 -0.3535533905932737
    endloop
  endfacet
  facet normal -0.9626372481397795 -0.19148045395532282 -0.1914804539553226
    outer loop
      vertex -1.0 6.123233995736766E-17 1.2246467991473532E-16
      vertex -0.8535533905932738 -0.3826834323650897 -0.3535533905932737
      vertex -0.9238795325112867 -0.3826834323650897 1.1314261122877003E-16
    endloop
  endfacet
  facet normal -0.8203258243119307 -0.5481241919387717 -0.1631729517365553
    outer loop
      vertex -0.9238795325112867 -0.3826834323650897 1.1314261122877003E-16
      vertex -0.8535533905932738 -0.3826834323650897 -0.3535533905932737
      vertex -0.6532814824381884 -0.7071067811865475 -0.27059805007309845
    endloop
  endfacet
  facet normal -0.8203258243119307 -0.5481241919387717 -0.1631729517365553
    outer loop
      vertex -0.9238795325112867 -0.3826834323650897 1.1314261122877003E-16
      vertex -0.6532814824381884 -0.7071067811865475 -0.27059805007309845
      vertex -0.7071067811865476 -0.7071067811865475 8.659560562354934E-17
    endloop
  endfacet
  facet normal -0.552208565651769 -0.8264385215476812 -0.10984111308111846
    outer loop
      vertex -0.7071067811865476 -0.7071067811865475 8.659560562354934E-17
      vertex -0.6532814824381884 -0.7071067811865475 -0.27059805007309845
      vertex -0.3535533905932739 -0.9238795325112867 -0.14644660940672624
    endloop
  endfacet
  facet normal -0.552208565651769 -0.8264385215476812 -0.10984111308111846
    outer loop
      vertex -0.7071067811865476 -0.7071067811865475 8.659560562354934E-17
      vertex -0.3535533905932739 -0.9238795325112867 -0.14644660940672624
      vertex -0.3826834323650899 -0.9238795325112867 4.6865204053263E-17
    endloop
  endfacet
  facet normal -0.194943594829647 -0.9800476330240645 -0.038776691953065906
    outer loop
      vertex -0.3826834323650899 -0.9238795325112867 4.6865204053263E-17
      vertex -0.3535533905932739 -0.9238795325112867 -0.14644660940672624
      vertex -1.2246467991473532E-16 -1.0 1.4997597826618576E-32
    endloop
  endfacet
  facet normal -0.16526519968492095 0.9800476330240645 -0.1104266760209314
    outer loop
      vertex 0.0 1.0 0.0
      vertex -0.27059805007309856 0.9238795325112867 -0.27059805007309845
      vertex -0.3535533905932738 0.9238795325112867 -0.1464466094067262
    endloop
  endfacet
  facet normal -0.46813981731439985 0.8264385215476813 -0.312801025488925
    outer loop
      vertex -0.3535533905932738 0.9238795325112867 -0.1464466094067262
      vertex -0.27059805007309856 0.9238795325112867 -0.27059805007309845
      vertex -0.5000000000000001 0.7071067811865476 -0.4999999999999999
    endloop
  endfacet
  facet normal -0.46813981731439985 0.8264385215476813 -0.312801025488925
    outer loop
      vertex -0.3535533905932738 0.9238795325112867 -0.1464466094067262
      vertex -0.5000000000000001 0.7071067811865476 -0.4999999999999999
      vertex -0.6532814824381883 0.7071067811865476 -0.2705980500730984
    endloop
  endfacet
  facet normal -0.6954386538325542 0.5481241919387719 -0.46467725247426667
    outer loop
      vertex -0.6532814824381883 0.7071067811865476 -0.2705980500730984
      vertex -0.5000000000000001 0.7071067811865476 -0.4999999999999999
      vertex -0.6532814824381884 0.38268343236508984 -0.6532814824381882
    endloop
  endfacet
  facet normal -0.6954386538325542 0.5481241919387719 -0.46467725247426667
    outer loop
      vertex -0.6532814824381883 0.7071067811865476 -0.2705980500730984
      vertex -0.6532814824381884 0.38268343236508984 -0.6532814824381882
      vertex -0.8535533905932738 0.38268343236508984 -0.3535533905932737
    endloop
  endfacet
  facet normal -0.8160844534388824 0.19148045395532287 -0.5452901985259078
    outer loop
      vertex -0.8535533905932738 0.38268343236508984 -0.3535533905932737
      vertex -0.6532814824381884 0.38268343236508984 -0.6532814824381882
      vertex -0.7071067811865477 6.123233995736766E-17 -0.7071067811865475
    endloop
  endfacet
  facet normal -0.8160844534388824 0.19148045395532287 -0.5452901985259078
    outer loop
      vertex -0.8535533905932738 0.38268343236508984 -0.3535533905932737
      vertex -0.7071067811865477 6.123233995736766E-17 -0.7071067811865475
      vertex -0.9238795325112868 6.123233995736766E-17 -0.38268343236508967
    endloop
  endfacet
  facet normal -0.8160844534388825 -0.19148045395532282 -0.5452901985259078
    outer loop
      vertex -0.9238795325112868 6.123233995736766E-17 -0.38268343236508967
      vertex -0.7071067811865477 6.123233995736766E-17 -0.7071067811865475
      vertex -0.6532814824381884 -0.3826834323650897 -0.6532814824381882
    endloop
  endfacet
  facet normal -0.8160844534388825 -0.19148045395532282 -0.5452901985259078
    outer loop
      vertex -0.9238795325112868 6.123233995736766E-17 -0.38268343236508967
      vertex -0.6532814824381884 -0.3826834323650897 -0.6532814824381882
      vertex -0.8535533905932738 -0.3826834323650897 -0.3535533905932737
    endloop
  endfacet
  facet normal -0.6954386538325542 -0.5481241919387718 -0.4646772524742667
    outer loop
      vertex -0.8535533905932738 -0.3826834323650897 -0.3535533905932737
      vertex -0.6532814824381884 -0.3826834323650897 -0.6532814824381882
      vertex -0.5000000000000001 -0.7071067811865475 -0.5
    endloop
  endfacet
  facet normal -0.6954386538325542 -0.5481241919387718 -0.4646772524742667
    outer loop
      vertex -0.8535533905932738 -0.3826834323650897 -0.3535533905932737
      vertex -0.5000000000000001 -0.7071067811865475 -0.5
      vertex -0.6532814824381884 -0.7071067811865475 -0.27059805007309845
    endloop
  endfacet
  facet normal -0.4681398173144 -0.8264385215476812 -0.3128010254889252
    outer loop
      vertex -0.6532814824381884 -0.7071067811865475 -0.27059805007309845
      vertex -0.5000000000000001 -0.7071067811865475 -0.5
      vertex -0.2705980500730986 -0.9238795325112867 -0.27059805007309856
    endloop
  endfacet
  facet normal -0.4681398173144 -0.8264385215476812 -0.3128010254889252
    outer loop
      vertex -0.6532814824381884 -0.7071067811865475 -0.27059805007309845
      vertex -0.2705980500730986 -0.9238795325112867 -0.27059805007309856
      vertex -0.3535533905932739 -0.9238795325112867 -0.14644660940672624
    endloop
  endfacet
  facet normal -0.16526519968492098 -0.9800476330240646 -0.11042667602093141
    outer loop
      vertex -0.3535533905932739 -0.9238795325112867 -0.14644660940672624
      vertex -0.2705980500730986 -0.9238795325112867 -0.27059805007309856
      vertex -1.1314261122877005E-16 -1.0 -4.686520405326297E-17
    endloop
  endfacet
  facet normal -0.11042667602093147 0.9800476330240645 -0.1652651996849209
    outer loop
      vertex 0.0 1.0 0.0
      vertex -0.14644660940672646 0.9238795325112867 -0.3535533905932737
      vertex -0.27059805007309856 0.9238795325112867 -0.27059805007309845
    endloop
  endfacet
  facet normal -0.3128010254889253 0.8264385215476813 -0.46813981731439974
    outer loop
      vertex -0.27059805007309856 0.9238795325112867 -0.27059805007309845
      vertex -0.14644660940672646 0.9238795325112867 -0.3535533905932737
      vertex -0.2705980500730989 0.7071067811865476 -0.6532814824381881
    endloop
  endfacet
  facet normal -0.3128010254889253 0.8264385215476813 -0.46813981731439974
    outer loop
      vertex -0.27059805007309856 0.9238795325112867 -0.27059805007309845
      vertex -0.2705980500730989 0.7071067811865476 -0.6532814824381881
      vertex -0.5000000000000001 0.7071067811865476 -0.4999999999999999
    endloop
  endfacet
  facet normal -0.46467725247426706 0.5481241919387718 -0.6954386538325539
    outer loop
      vertex -0.5000000000000001 0.7071067811865476 -0.4999999999999999
      vertex -0.2705980500730989 0.7071067811865476 -0.6532814824381881
      vertex -0.3535533905932743 0.38268343236508984 -0.8535533905932735
    endloop
  endfacet
  facet normal -0.46467725247426706 0.5481241919387718 -0.6954386538325539
    outer loop
      vertex -0.5000000000000001 0.7071067811865476 -0.4999999999999999
      vertex -0.3535533905932743 0.38268343236508984 -0.8535533905932735
      vertex -0.6532814824381884 0.38268343236508984 -0.6532814824381882
    endloop
  endfacet
  facet normal -0.5452901985259082 0.19148045395532284 -0.8160844534388823
    outer loop
      vertex -0.6532814824381884 0.38268343236508984 -0.6532814824381882
      vertex -0.3535533905932743 0.38268343236508984 -0.8535533905932735
      vertex -0.38268343236509034 6.123233995736766E-17 -0.9238795325112865
    endloop
  endfacet
  facet normal -0.5452901985259082 0.19148045395532284 -0.8160844534388823
    outer loop
      vertex -0.6532814824381884 0.38268343236508984 -0.6532814824381882
      vertex -0.38268343236509034 6.123233995736766E-17 -0.9238795325112865
      vertex -0.7071067811865477 6.123233995736766E-17 -0.7071067811865475
    endloop
  endfacet
  facet normal -0.5452901985259081 -0.19148045395532284 -0.8160844534388823
    outer loop
      vertex -0.7071067811865477 6.123233995736766E-17 -0.7071067811865475
      vertex -0.38268343236509034 6.123233995736766E-17 -0.9238795325112865
      vertex -0.3535533905932743 -0.3826834323650897 -0.8535533905932735
    endloop
  endfacet
  facet normal -0.5452901985259081 -0.19148045395532284 -0.8160844534388823
    outer loop
      vertex -0.7071067811865477 6.123233995736766E-17 -0.7071067811865475
      vertex -0.3535533905932743 -0.3826834323650897 -0.8535533905932735
      vertex -0.6532814824381884 -0.3826834323650897 -0.6532814824381882
    endloop
  endfacet
  facet normal -0.464677252474267 -0.5481241919387717 -0.6954386538325541
    outer loop
      vertex -0.6532814824381884 -0.3826834323650897 -0.6532814824381882
      vertex -0.3535533905932743 -0.3826834323650897 -0.8535533905932735
      vertex -0.2705980500730989 -0.7071067811865475 -0.6532814824381882
    endloop
  endfacet
  facet normal -0.464677252474267 -0.5481241919387717 -0.6954386538325541
    outer loop
      vertex -0.6532814824381884 -0.3826834323650897 -0.6532814824381882
      vertex -0.2705980500730989 -0.7071067811865475 -0.6532814824381882
      vertex -0.5000000000000001 -0.7071067811865475 -0.5
    endloop
  endfacet
  facet normal -0.31280102548892535 -0.826438521547681 -0.46813981731439985
    outer loop
      vertex -0.5000000000000001 -0.7071067811865475 -0.5
      vertex -0.2705980500730989 -0.7071067811865475 -0.6532814824381882
      vertex -0.1464466094067265 -0.9238795325112867 -0.3535533905932738
    endloop
  endfacet
  facet normal -0.31280102548892535 -0.826438521547681 -0.46813981731439985
    outer loop
      vertex -0.5000000000000001 -0.7071067811865475 -0.5
      vertex -0.1464466094067265 -0.9238795325112867 -0.3535533905932738
      vertex -0.2705980500730986 -0.9238795325112867 -0.27059805007309856
    endloop
  endfacet
  facet normal -0.11042667602093145 -0.9800476330240645 -0.1652651996849209
    outer loop
      vertex -0.2705980500730986 -0.9238795325112867 -0.27059805007309856
      vertex -0.1464466094067265 -0.9238795325112867 -0.3535533905932738
      vertex -8.659560562354935E-17 -1.0 -8.659560562354932E-17
    endloop
  endfacet
  facet normal -0.038776691953066045 0.9800476330240645 -0.19494359482964702
    outer loop
      vertex 0.0 1.0 0.0
      vertex -7.029780607989448E-17 0.9238795325112867 -0.3826834323650898
      vertex -0.14644660940672646 0.9238795325112867 -0.3535533905932737
    endloop
  endfacet
  facet normal -0.10984111308111887 0.8264385215476812 -0.5522085656517688
    outer loop
      vertex -0.14644660940672646 0.9238795325112867 -0.3535533905932737
      vertex -7.029780607989448E-17 0.9238795325112867 -0.3826834323650898
      vertex -1.2989340843532398E-16 0.7071067811865476 -0.7071067811865475
    endloop
  endfacet
  facet normal -0.10984111308111887 0.8264385215476812 -0.5522085656517688
    outer loop
      vertex -0.14644660940672646 0.9238795325112867 -0.3535533905932737
      vertex -1.2989340843532398E-16 0.7071067811865476 -0.7071067811865475
      vertex -0.2705980500730989 0.7071067811865476 -0.6532814824381881
    endloop
  endfacet
  facet normal -0.1631729517365557 0.5481241919387718 -0.8203258243119302
    outer loop
      vertex -0.2705980500730989 0.7071067811865476 -0.6532814824381881
      vertex -1.2989340843532398E-16 0.7071067811865476 -0.7071067811865475
      vertex -1.6971391684315505E-16 0.38268343236508984 -0.9238795325112867
    endloop
  endfacet
  facet normal -0.1631729517365557 0.5481241919387718 -0.8203258243119302
    outer loop
      vertex -0.2705980500730989 0.7071067811865476 -0.6532814824381881
      vertex -1.6971391684315505E-16 0.38268343236508984 -0.9238795325112867
      vertex -0.3535533905932743 0.38268343236508984 -0.8535533905932735
    endloop
  endfacet
  facet normal -0.1914804539553232 0.19148045395532282 -0.9626372481397791
    outer loop
      vertex -0.3535533905932743 0.38268343236508984 -0.8535533905932735
      vertex -1.6971391684315505E-16 0.38268343236508984 -0.9238795325112867
      vertex -1.8369701987210297E-16 6.123233995736766E-17 -1.0
    endloop
  endfacet
  facet normal -0.1914804539553232 0.19148045395532282 -0.9626372481397791
    outer loop
      vertex -0.3535533905932743 0.38268343236508984 -0.8535533905932735
      vertex -1.8369701987210297E-16 6.123233995736766E-17 -1.0
      vertex -0.38268343236509034 6.123233995736766E-17 -0.9238795325112865
    endloop
  endfacet
  facet normal -0.19148045395532318 -0.19148045395532282 -0.9626372481397794
    outer loop
      vertex -0.38268343236509034 6.123233995736766E-17 -0.9238795325112865
      vertex -1.8369701987210297E-16 6.123233995736766E-17 -1.0
      vertex -1.6971391684315505E-16 -0.3826834323650897 -0.9238795325112867
    endloop
  endfacet
  facet normal -0.19148045395532318 -0.19148045395532282 -0.9626372481397794
    outer loop
      vertex -0.38268343236509034 6.123233995736766E-17 -0.9238795325112865
      vertex -1.6971391684315505E-16 -0.3826834323650897 -0.9238795325112867
      vertex -0.3535533905932743 -0.3826834323650897 -0.8535533905932735
    endloop
  endfacet
  facet normal -0.16317295173655585 -0.5481241919387716 -0.8203258243119304
    outer loop
      vertex -0.3535533905932743 -0.3826834323650897 -0.8535533905932735
      vertex -1.6971391684315505E-16 -0.3826834323650897 -0.9238795325112867
      vertex -1.29893408435324E-16 -0.7071067811865475 -0.7071067811865476
    endloop
  endfacet
  facet normal -0.16317295173655585 -0.5481241919387716 -0.8203258243119304
    outer loop
      vertex -0.3535533905932743 -0.3826834323650897 -0.8535533905932735
      vertex -1.29893408435324E-16 -0.7071067811865475 -0.7071067811865476
      vertex -0.2705980500730989 -0.7071067811865475 -0.6532814824381882
    endloop
  endfacet
  facet normal -0.10984111308111884 -0.826438521547681 -0.552208565651769
    outer loop
      vertex -0.2705980500730989 -0.7071067811865475 -0.6532814824381882
      vertex -1.29893408435324E-16 -0.7071067811865475 -0.7071067811865476
      vertex -7.029780607989449E-17 -0.9238795325112867 -0.3826834323650899
    endloop
  endfacet
  facet normal -0.10984111308111884 -0.826438521547681 -0.552208565651769
    outer loop
      vertex -0.2705980500730989 -0.7071067811865475 -0.6532814824381882
      vertex -7.029780607989449E-17 -0.9238795325112867 -0.3826834323650899
      vertex -0.1464466094067265 -0.9238795325112867 -0.3535533905932738
    endloop
  endfacet
  facet normal -0.03877669195306603 -0.9800476330240645 -0.19494359482964702
    outer loop
      vertex -0.1464466094067265 -0.9238795325112867 -0.3535533905932738
      vertex -7.029780607989449E-17 -0.9238795325112867 -0.3826834323650899
      vertex -4.6865204053263054E-17 -1.0 -1.1314261122877E-16
    endloop
  endfacet
  facet normal 0.03877669195306592 0.9800476330240645 -0.19494359482964702
    outer loop
      vertex 0.0 1.0 0.0
      vertex 0.14644660940672632 0.9238795325112867 -0.35355339059327373
      vertex -7.029780607989448E-17 0.9238795325112867 -0.3826834323650898
    endloop
  endfacet
  facet normal 0.10984111308111867 0.8264385215476812 -0.5522085656517688
    outer loop
      vertex -7.029780607989448E-17 0.9238795325112867 -0.3826834323650898
      vertex 0.14644660940672632 0.9238795325112867 -0.35355339059327373
      vertex 0.2705980500730986 0.7071067811865476 -0.6532814824381881
    endloop
  endfacet
  facet normal 0.10984111308111867 0.8264385215476812 -0.5522085656517688
    outer loop
      vertex -7.029780607989448E-17 0.9238795325112867 -0.3826834323650898
      vertex 0.2705980500730986 0.7071067811865476 -0.6532814824381881
      vertex -1.2989340843532398E-16 0.7071067811865476 -0.7071067811865475
    endloop
  endfacet
  facet normal 0.16317295173655574 0.5481241919387719 -0.8203258243119304
    outer loop
      vertex -1.2989340843532398E-16 0.7071067811865476 -0.7071067811865475
      vertex 0.2705980500730986 0.7071067811865476 -0.6532814824381881
      vertex 0.35355339059327395 0.38268343236508984 -0.8535533905932736
    endloop
  endfacet
  facet normal 0.16317295173655574 0.5481241919387719 -0.8203258243119304
    outer loop
      vertex -1.2989340843532398E-16 0.7071067811865476 -0.7071067811865475
      vertex 0.35355339059327395 0.38268343236508984 -0.8535533905932736
      vertex -1.6971391684315505E-16 0.38268343236508984 -0.9238795325112867
    endloop
  endfacet
  facet normal 0.19148045395532293 0.19148045395532284 -0.9626372481397794
    outer loop
      vertex -1.6971391684315505E-16 0.38268343236508984 -0.9238795325112867
      vertex 0.35355339059327395 0.38268343236508984 -0.8535533905932736
      vertex 0.38268343236509 6.123233995736766E-17 -0.9238795325112866
    endloop
  endfacet
  facet normal 0.19148045395532293 0.19148045395532284 -0.9626372481397794
    outer loop
      vertex -1.6971391684315505E-16 0.38268343236508984 -0.9238795325112867
      vertex 0.38268343236509 6.123233995736766E-17 -0.9238795325112866
      vertex -1.8369701987210297E-16 6.123233995736766E-17 -1.0
    endloop
  endfacet
  facet normal 0.1914804539553229 -0.19148045395532287 -0.9626372481397794
    outer loop
      vertex -1.8369701987210297E-16 6.123233995736766E-17 -1.0
      vertex 0.38268343236509 6.123233995736766E-17 -0.9238795325112866
      vertex 0.35355339059327395 -0.3826834323650897 -0.8535533905932736
    endloop
  endfacet
  facet normal 0.1914804539553229 -0.19148045395532287 -0.9626372481397794
    outer loop
      vertex -1.8369701987210297E-16 6.123233995736766E-17 -1.0
      vertex 0.35355339059327395 -0.3826834323650897 -0.8535533905932736
      vertex -1.6971391684315505E-16 -0.3826834323650897 -0.9238795325112867
    endloop
  endfacet
  facet normal 0.1631729517365556 -0.5481241919387717 -0.8203258243119304
    outer loop
      vertex -1.6971391684315505E-16 -0.3826834323650897 -0.9238795325112867
      vertex 0.35355339059327395 -0.3826834323650897 -0.8535533905932736
      vertex 0.2705980500730987 -0.7071067811865475 -0.6532814824381882
    endloop
  endfacet
  facet normal 0.1631729517365556 -0.5481241919387717 -0.8203258243119304
    outer loop
      vertex -1.6971391684315505E-16 -0.3826834323650897 -0.9238795325112867
      vertex 0.2705980500730987 -0.7071067811865475 -0.6532814824381882
      vertex -1.29893408435324E-16 -0.7071067811865475 -0.7071067811865476
    endloop
  endfacet
  facet normal 0.10984111308111884 -0.826438521547681 -0.552208565651769
    outer loop
      vertex -1.29893408435324E-16 -0.7071067811865475 -0.7071067811865476
      vertex 0.2705980500730987 -0.7071067811865475 -0.6532814824381882
      vertex 0.14644660940672638 -0.9238795325112867 -0.35355339059327384
    endloop
  endfacet
  facet normal 0.10984111308111884 -0.826438521547681 -0.552208565651769
    outer loop
      vertex -1.29893408435324E-16 -0.7071067811865475 -0.7071067811865476
      vertex 0.14644660940672638 -0.9238795325112867 -0.35355339059327384
      vertex -7.029780607989449E-17 -0.9238795325112867 -0.3826834323650899
    endloop
  endfacet
  facet normal 0.03877669195306594 -0.9800476330240645 -0.194943594829647
    outer loop
      vertex -7.029780607989449E-17 -0.9238795325112867 -0.3826834323650899
      vertex 0.14644660940672638 -0.9238795325112867 -0.35355339059327384
      vertex -2.2496396739927864E-32 -1.0 -1.2246467991473532E-16
    endloop
  endfacet
  facet normal 0.11042667602093144 0.9800476330240646 -0.16526519968492093
    outer loop
      vertex 0.0 1.0 0.0
      vertex 0.27059805007309845 0.9238795325112867 -0.27059805007309856
      vertex 0.14644660940672632 0.9238795325112867 -0.35355339059327373
    endloop
  endfacet
  facet normal 0.3128010254889251 0.8264385215476812 -0.46813981731439985
    outer loop
      vertex 0.14644660940672632 0.9238795325112867 -0.35355339059327373
      vertex 0.27059805007309845 0.9238795325112867 -0.27059805007309856
      vertex 0.49999999999999983 0.7071067811865476 -0.5000000000000001
    endloop
  endfacet
  facet normal 0.3128010254889251 0.8264385215476812 -0.46813981731439985
    outer loop
      vertex 0.14644660940672632 0.9238795325112867 -0.35355339059327373
      vertex 0.49999999999999983 0.7071067811865476 -0.5000000000000001
      vertex 0.2705980500730986 0.7071067811865476 -0.6532814824381881
    endloop
  endfacet
  facet normal 0.4646772524742665 0.5481241919387717 -0.6954386538325541
    outer loop
      vertex 0.2705980500730986 0.7071067811865476 -0.6532814824381881
      vertex 0.49999999999999983 0.7071067811865476 -0.5000000000000001
      vertex 0.6532814824381881 0.38268343236508984 -0.6532814824381884
    endloop
  endfacet
  facet normal 0.4646772524742665 0.5481241919387717 -0.6954386538325541
    outer loop
      vertex 0.2705980500730986 0.7071067811865476 -0.6532814824381881
      vertex 0.6532814824381881 0.38268343236508984 -0.6532814824381884
      vertex 0.35355339059327395 0.38268343236508984 -0.8535533905932736
    endloop
  endfacet
  facet normal 0.545290198525908 0.19148045395532284 -0.8160844534388825
    outer loop
      vertex 0.35355339059327395 0.38268343236508984 -0.8535533905932736
      vertex 0.6532814824381881 0.38268343236508984 -0.6532814824381884
      vertex 0.7071067811865474 6.123233995736766E-17 -0.7071067811865477
    endloop
  endfacet
  facet normal 0.545290198525908 0.19148045395532284 -0.8160844534388825
    outer loop
      vertex 0.35355339059327395 0.38268343236508984 -0.8535533905932736
      vertex 0.7071067811865474 6.123233995736766E-17 -0.7071067811865477
      vertex 0.38268343236509 6.123233995736766E-17 -0.9238795325112866
    endloop
  endfacet
  facet normal 0.5452901985259079 -0.19148045395532284 -0.8160844534388824
    outer loop
      vertex 0.38268343236509 6.123233995736766E-17 -0.9238795325112866
      vertex 0.7071067811865474 6.123233995736766E-17 -0.7071067811865477
      vertex 0.6532814824381881 -0.3826834323650897 -0.6532814824381884
    endloop
  endfacet
  facet normal 0.5452901985259079 -0.19148045395532284 -0.8160844534388824
    outer loop
      vertex 0.38268343236509 6.123233995736766E-17 -0.9238795325112866
      vertex 0.6532814824381881 -0.3826834323650897 -0.6532814824381884
      vertex 0.35355339059327395 -0.3826834323650897 -0.8535533905932736
    endloop
  endfacet
  facet normal 0.4646772524742668 -0.5481241919387717 -0.6954386538325541
    outer loop
      vertex 0.35355339059327395 -0.3826834323650897 -0.8535533905932736
      vertex 0.6532814824381881 -0.3826834323650897 -0.6532814824381884
      vertex 0.4999999999999999 -0.7071067811865475 -0.5000000000000001
    endloop
  endfacet
  facet normal 0.4646772524742668 -0.5481241919387717 -0.6954386538325541
    outer loop
      vertex 0.35355339059327395 -0.3826834323650897 -0.8535533905932736
      vertex 0.4999999999999999 -0.7071067811865475 -0.5000000000000001
      vertex 0.2705980500730987 -0.7071067811865475 -0.6532814824381882
    endloop
  endfacet
  facet normal 0.31280102548892524 -0.8264385215476812 -0.4681398173144
    outer loop
      vertex 0.2705980500730987 -0.7071067811865475 -0.6532814824381882
      vertex 0.4999999999999999 -0.7071067811865475 -0.5000000000000001
      vertex 0.2705980500730985 -0.9238795325112867 -0.2705980500730986
    endloop
  endfacet
  facet normal 0.31280102548892524 -0.8264385215476812 -0.4681398173144
    outer loop
      vertex 0.2705980500730987 -0.7071067811865475 -0.6532814824381882
      vertex 0.2705980500730985 -0.9238795325112867 -0.2705980500730986
      vertex 0.14644660940672638 -0.9238795325112867 -0.35355339059327384
    endloop
  endfacet
  facet normal 0.11042667602093147 -0.9800476330240645 -0.16526519968492093
    outer loop
      vertex 0.14644660940672638 -0.9238795325112867 -0.35355339059327384
      vertex 0.2705980500730985 -0.9238795325112867 -0.2705980500730986
      vertex 4.686520405326301E-17 -1.0 -1.1314261122877003E-16
    endloop
  endfacet
  facet normal 0.16526519968492087 0.9800476330240646 -0.1104266760209315
    outer loop
      vertex 0.0 1.0 0.0
      vertex 0.3535533905932737 0.9238795325112867 -0.1464466094067265
      vertex 0.27059805007309845 0.9238795325112867 -0.27059805007309856
    endloop
  endfacet
  facet normal 0.46813981731439974 0.8264385215476812 -0.31280102548892535
    outer loop
      vertex 0.27059805007309845 0.9238795325112867 -0.27059805007309856
      vertex 0.3535533905932737 0.9238795325112867 -0.1464466094067265
      vertex 0.6532814824381881 0.7071067811865476 -0.2705980500730989
    endloop
  endfacet
  facet normal 0.46813981731439974 0.8264385215476812 -0.31280102548892535
    outer loop
      vertex 0.27059805007309845 0.9238795325112867 -0.27059805007309856
      vertex 0.6532814824381881 0.7071067811865476 -0.2705980500730989
      vertex 0.49999999999999983 0.7071067811865476 -0.5000000000000001
    endloop
  endfacet
  facet normal 0.6954386538325538 0.5481241919387718 -0.4646772524742671
    outer loop
      vertex 0.49999999999999983 0.7071067811865476 -0.5000000000000001
      vertex 0.6532814824381881 0.7071067811865476 -0.2705980500730989
      vertex 0.8535533905932735 0.38268343236508984 -0.35355339059327434
    endloop
  endfacet
  facet normal 0.6954386538325538 0.5481241919387718 -0.4646772524742671
    outer loop
      vertex 0.49999999999999983 0.7071067811865476 -0.5000000000000001
      vertex 0.8535533905932735 0.38268343236508984 -0.35355339059327434
      vertex 0.6532814824381881 0.38268343236508984 -0.6532814824381884
    endloop
  endfacet
  facet normal 0.8160844534388821 0.1914804539553229 -0.5452901985259084
    outer loop
      vertex 0.6532814824381881 0.38268343236508984 -0.6532814824381884
      vertex 0.8535533905932735 0.38268343236508984 -0.35355339059327434
      vertex 0.9238795325112865 6.123233995736766E-17 -0.3826834323650904
    endloop
  endfacet
  facet normal 0.8160844534388821 0.1914804539553229 -0.5452901985259084
    outer loop
      vertex 0.6532814824381881 0.38268343236508984 -0.6532814824381884
      vertex 0.9238795325112865 6.123233995736766E-17 -0.3826834323650904
      vertex 0.7071067811865474 6.123233995736766E-17 -0.7071067811865477
    endloop
  endfacet
  facet normal 0.8160844534388821 -0.19148045395532284 -0.5452901985259084
    outer loop
      vertex 0.7071067811865474 6.123233995736766E-17 -0.7071067811865477
      vertex 0.9238795325112865 6.123233995736766E-17 -0.3826834323650904
      vertex 0.8535533905932735 -0.3826834323650897 -0.35355339059327434
    endloop
  endfacet
  facet normal 0.8160844534388821 -0.19148045395532284 -0.5452901985259084
    outer loop
      vertex 0.7071067811865474 6.123233995736766E-17 -0.7071067811865477
      vertex 0.8535533905932735 -0.3826834323650897 -0.35355339059327434
      vertex 0.6532814824381881 -0.3826834323650897 -0.6532814824381884
    endloop
  endfacet
  facet normal 0.6954386538325539 -0.5481241919387717 -0.4646772524742673
    outer loop
      vertex 0.6532814824381881 -0.3826834323650897 -0.6532814824381884
      vertex 0.8535533905932735 -0.3826834323650897 -0.35355339059327434
      vertex 0.6532814824381882 -0.7071067811865475 -0.27059805007309895
    endloop
  endfacet
  facet normal 0.6954386538325539 -0.5481241919387717 -0.4646772524742673
    outer loop
      vertex 0.6532814824381881 -0.3826834323650897 -0.6532814824381884
      vertex 0.6532814824381882 -0.7071067811865475 -0.27059805007309895
      vertex 0.4999999999999999 -0.7071067811865475 -0.5000000000000001
    endloop
  endfacet
  facet normal 0.4681398173143998 -0.826438521547681 -0.3128010254889256
    outer loop
      vertex 0.4999999999999999 -0.7071067811865475 -0.5000000000000001
      vertex 0.6532814824381882 -0.7071067811865475 -0.27059805007309895
      vertex 0.3535533905932738 -0.9238795325112867 -0.14644660940672652
    endloop
  endfacet
  facet normal 0.4681398173143998 -0.826438521547681 -0.3128010254889256
    outer loop
      vertex 0.4999999999999999 -0.7071067811865475 -0.5000000000000001
      vertex 0.3535533905932738 -0.9238795325112867 -0.14644660940672652
      vertex 0.2705980500730985 -0.9238795325112867 -0.2705980500730986
    endloop
  endfacet
  facet normal 0.16526519968492084 -0.9800476330240645 -0.11042667602093154
    outer loop
      vertex 0.2705980500730985 -0.9238795325112867 -0.2705980500730986
      vertex 0.3535533905932738 -0.9238795325112867 -0.14644660940672652
      vertex 8.65956056235493E-17 -1.0 -8.659560562354935E-17
    endloop
  endfacet
  facet normal 0.19494359482964704 0.9800476330240645 -0.038776691953066045
    outer loop
      vertex 0.0 1.0 0.0
      vertex 0.3826834323650898 0.9238795325112867 -9.373040810652597E-17
      vertex 0.3535533905932737 0.9238795325112867 -0.1464466094067265
    endloop
  endfacet
  facet normal 0.5522085656517687 0.8264385215476812 -0.10984111308111885
    outer loop
      vertex 0.3535533905932737 0.9238795325112867 -0.1464466094067265
      vertex 0.3826834323650898 0.9238795325112867 -9.373040810652597E-17
      vertex 0.7071067811865475 0.7071067811865476 -1.7319121124709863E-16
    endloop
  endfacet
  facet normal 0.5522085656517687 0.8264385215476812 -0.10984111308111885
    outer loop
      vertex 0.3535533905932737 0.9238795325112867 -0.1464466094067265
      vertex 0.7071067811865475 0.7071067811865476 -1.7319121124709863E-16
      vertex 0.6532814824381881 0.7071067811865476 -0.2705980500730989
    endloop
  endfacet
  facet normal 0.8203258243119304 0.5481241919387718 -0.16317295173655574
    outer loop
      vertex 0.6532814824381881 0.7071067811865476 -0.2705980500730989
      vertex 0.7071067811865475 0.7071067811865476 -1.7319121124709863E-16
      vertex 0.9238795325112867 0.38268343236508984 -2.2628522245754005E-16
    endloop
  endfacet
  facet normal 0.8203258243119304 0.5481241919387718 -0.16317295173655574
    outer loop
      vertex 0.6532814824381881 0.7071067811865476 -0.2705980500730989
      vertex 0.9238795325112867 0.38268343236508984 -2.2628522245754005E-16
      vertex 0.8535533905932735 0.38268343236508984 -0.35355339059327434
    endloop
  endfacet
  facet normal 0.9626372481397794 0.19148045395532284 -0.19148045395532323
    outer loop
      vertex 0.8535533905932735 0.38268343236508984 -0.35355339059327434
      vertex 0.9238795325112867 0.38268343236508984 -2.2628522245754005E-16
      vertex 1.0 6.123233995736766E-17 -2.4492935982947064E-16
    endloop
  endfacet
  facet normal 0.9626372481397794 0.19148045395532284 -0.19148045395532323
    outer loop
      vertex 0.8535533905932735 0.38268343236508984 -0.35355339059327434
      vertex 1.0 6.123233995736766E-17 -2.4492935982947064E-16
      vertex 0.9238795325112865 6.123233995736766E-17 -0.3826834323650904
    endloop
  endfacet
  facet normal 0.9626372481397791 -0.1914804539553228 -0.19148045395532315
    outer loop
      vertex 0.9238795325112865 6.123233995736766E-17 -0.3826834323650904
      vertex 1.0 6.123233995736766E-17 -2.4492935982947064E-16
      vertex 0.9238795325112867 -0.3826834323650897 -2.2628522245754005E-16
    endloop
  endfacet
  facet normal 0.9626372481397791 -0.1914804539553228 -0.19148045395532315
    outer loop
      vertex 0.9238795325112865 6.123233995736766E-17 -0.3826834323650904
      vertex 0.9238795325112867 -0.3826834323650897 -2.2628522245754005E-16
      vertex 0.8535533905932735 -0.3826834323650897 -0.35355339059327434
    endloop
  endfacet
  facet normal 0.8203258243119304 -0.5481241919387716 -0.16317295173655585
    outer loop
      vertex 0.8535533905932735 -0.3826834323650897 -0.35355339059327434
      vertex 0.9238795325112867 -0.3826834323650897 -2.2628522245754005E-16
      vertex 0.7071067811865476 -0.7071067811865475 -1.7319121124709868E-16
    endloop
  endfacet
  facet normal 0.8203258243119304 -0.5481241919387716 -0.16317295173655585
    outer loop
      vertex 0.8535533905932735 -0.3826834323650897 -0.35355339059327434
      vertex 0.7071067811865476 -0.7071067811865475 -1.7319121124709868E-16
      vertex 0.6532814824381882 -0.7071067811865475 -0.27059805007309895
    endloop
  endfacet
  facet normal 0.552208565651769 -0.826438521547681 -0.10984111308111884
    outer loop
      vertex 0.6532814824381882 -0.7071067811865475 -0.27059805007309895
      vertex 0.7071067811865476 -0.7071067811865475 -1.7319121124709868E-16
      vertex 0.3826834323650899 -0.9238795325112867 -9.3730408106526E-17
    endloop
  endfacet
  facet normal 0.552208565651769 -0.826438521547681 -0.10984111308111884
    outer loop
      vertex 0.6532814824381882 -0.7071067811865475 -0.27059805007309895
      vertex 0.3826834323650899 -0.9238795325112867 -9.3730408106526E-17
      vertex 0.3535533905932738 -0.9238795325112867 -0.14644660940672652
    endloop
  endfacet
  facet normal 0.194943594829647 -0.9800476330240645 -0.03877669195306602
    outer loop
      vertex 0.3535533905932738 -0.9238795325112867 -0.14644660940672652
      vertex 0.3826834323650899 -0.9238795325112867 -9.3730408106526E-17
      vertex 1.1314261122877E-16 -1.0 -4.686520405326306E-17
    endloop
  endfacet
endsolid v3d.csg
