solid v3d.csg
  facet normal 0.9990482215818577 0.043619387365336236 5.3036954506897686E-17
    outer loop
      vertex 0.49952411079092907 0.021809693682668007 63.0
      vertex 0.499524110790929 0.021809693682668062 64.0
      vertex 1.3719118580976537 -19.959154737954485 64.0
    endloop
  endfacet
  facet normal 0.9990482215818577 0.043619387365336236 5.3036954506897686E-17
    outer loop
      vertex 0.49952411079092907 0.021809693682668007 63.0
      vertex 1.3719118580976537 -19.959154737954485 64.0
      vertex 1.3719118580976537 -19.959154737954485 63.0
    endloop
  endfacet
  facet normal -0.9990482215818577 -0.043619387365336236 0.0
    outer loop
      vertex -0.49952411079092884 -0.02180969368266823 63.0
      vertex 0.37286363651579596 -20.002774125319824 63.0
      vertex 0.3728636365157959 -20.002774125319824 64.0
    endloop
  endfacet
  facet normal -0.9990482215818577 -0.043619387365336236 0.0
    outer loop
      vertex -0.49952411079092884 -0.02180969368266823 63.0
      vertex 0.3728636365157959 -20.002774125319824 64.0
      vertex -0.4995241107909289 -0.021809693682668174 64.0
    endloop
  endfacet
  facet normal -0.04361938736533623 0.9990482215818577 -5.5511151231257815E-17
    outer loop
      vertex 0.49952411079092907 0.021809693682668007 63.0
      vertex -0.49952411079092884 -0.02180969368266823 63.0
      vertex -0.4995241107909289 -0.021809693682668174 64.0
    endloop
  endfacet
  facet normal -0.04361938736533623 0.9990482215818577 -5.5511151231257815E-17
    outer loop
      vertex 0.49952411079092907 0.021809693682668007 63.0
      vertex -0.4995241107909289 -0.021809693682668174 64.0
      vertex 0.499524110790929 0.021809693682668062 64.0
    endloop
  endfacet
  facet normal 0.04361938736533943 -0.9990482215818576 0.0
    outer loop
      vertex 1.3719118580976537 -19.959154737954485 63.0
      vertex 1.3719118580976537 -19.959154737954485 64.0
      vertex 0.3728636365157959 -20.002774125319824 64.0
    endloop
  endfacet
  facet normal 0.04361938736533943 -0.9990482215818576 0.0
    outer loop
      vertex 1.3719118580976537 -19.959154737954485 63.0
      vertex 0.3728636365157959 -20.002774125319824 64.0
      vertex 0.37286363651579596 -20.002774125319824 63.0
    endloop
  endfacet
  facet normal 0.0 -0.0 -1.0
    outer loop
      vertex 0.49952411079092907 0.021809693682668007 63.0
      vertex 1.3719118580976537 -19.959154737954485 63.0
      vertex 0.37286363651579596 -20.002774125319824 63.0
    endloop
  endfacet
  facet normal 0.0 -0.0 -1.0
    outer loop
      vertex 0.49952411079092907 0.021809693682668007 63.0
      vertex 0.37286363651579596 -20.002774125319824 63.0
      vertex -0.49952411079092884 -0.02180969368266823 63.0
    endloop
  endfacet
  facet normal 0.0 0.0 1.0
    outer loop
      vertex 0.499524110790929 0.021809693682668062 64.0
      vertex -0.4995241107909289 -0.021809693682668174 64.0
      vertex 0.3728636365157959 -20.002774125319824 64.0
    endloop
  endfacet
  facet normal 0.0 0.0 1.0
    outer loop
      vertex 0.499524110790929 0.021809693682668062 64.0
      vertex 0.3728636365157959 -20.002774125319824 64.0
      vertex 1.3719118580976537 -19.959154737954485 64.0
    endloop
  endfacet
endsolid v3d.csg
