solid v3d.csg
  facet normal -0.9970527522269202 0.07671902812681833 -5.960630768707334E-17
    outer loop
      vertex -0.49852637611346 0.03835951406340905 63.0
      vertex -0.49852637611346007 0.03835951406340911 64.0
      vertex 1.0358541864229065 19.979414558601814 64.0
    endloop
  endfacet
  facet normal -0.9970527522269202 0.07671902812681833 -5.960630768707334E-17
    outer loop
      vertex -0.49852637611346 0.03835951406340905 63.0
      vertex 1.0358541864229065 19.979414558601814 64.0
      vertex 1.0358541864229065 19.979414558601814 63.0
    endloop
  endfacet
  facet normal 0.9970527522269202 -0.07671902812681833 0.0
    outer loop
      vertex 0.49852637611346023 -0.038359514063409275 63.0
      vertex 2.032906938649827 19.902695530474997 63.0
      vertex 2.032906938649827 19.902695530474997 64.0
    endloop
  endfacet
  facet normal 0.9970527522269202 -0.07671902812681833 0.0
    outer loop
      vertex 0.49852637611346023 -0.038359514063409275 63.0
      vertex 2.032906938649827 19.902695530474997 64.0
      vertex 0.4985263761134602 -0.03835951406340922 64.0
    endloop
  endfacet
  facet normal -0.07671902812681833 -0.9970527522269202 4.163336342344337E-17
    outer loop
      vertex -0.49852637611346 0.03835951406340905 63.0
      vertex 0.49852637611346023 -0.038359514063409275 63.0
      vertex 0.4985263761134602 -0.03835951406340922 64.0
    endloop
  endfacet
  facet normal -0.07671902812681833 -0.9970527522269202 4.163336342344337E-17
    outer loop
      vertex -0.49852637611346 0.03835951406340905 63.0
      vertex 0.4985263761134602 -0.03835951406340922 64.0
      vertex -0.49852637611346007 0.03835951406340911 64.0
    endloop
  endfacet
  facet normal 0.07671902812681708 0.9970527522269204 -0.0
    outer loop
      vertex 1.0358541864229065 19.979414558601814 63.0
      vertex 1.0358541864229065 19.979414558601814 64.0
      vertex 2.032906938649827 19.902695530474997 64.0
    endloop
  endfacet
  facet normal 0.07671902812681708 0.9970527522269204 -0.0
    outer loop
      vertex 1.0358541864229065 19.979414558601814 63.0
      vertex 2.032906938649827 19.902695530474997 64.0
      vertex 2.032906938649827 19.902695530474997 63.0
    endloop
  endfacet
  facet normal 0.0 0.0 -1.0
    outer loop
      vertex -0.49852637611346 0.03835951406340905 63.0
      vertex 1.0358541864229065 19.979414558601814 63.0
      vertex 2.032906938649827 19.902695530474997 63.0
    endloop
  endfacet
  facet normal 0.0 0.0 -1.0
    outer loop
      vertex -0.49852637611346 0.03835951406340905 63.0
      vertex 2.032906938649827 19.902695530474997 63.0
      vertex 0.49852637611346023 -0.038359514063409275 63.0
    endloop
  endfacet
  facet normal -0.0 0.0 1.0
    outer loop
      vertex -0.49852637611346007 0.03835951406340911 64.0
      vertex 0.4985263761134602 -0.03835951406340922 64.0
      vertex 2.032906938649827 19.902695530474997 64.0
    endloop
  endfacet
  facet normal -0.0 0.0 1.0
    outer loop
      vertex -0.49852637611346007 0.03835951406340911 64.0
      vertex 2.032906938649827 19.902695530474997 64.0
      vertex 1.0358541864229065 19.979414558601814 64.0
    endloop
  endfacet
endsolid v3d.csg
