solid v3d.csg
  facet normal -1.6653345369377348E-16 1.0 -9.244463733058724E-33
    outer loop
      vertex -1.1102230246251568E-16 0.5 64.5
      vertex -1.6653345369377346E-16 0.5 65.5
      vertex 20.0 0.5000000000000033 65.5
    endloop
  endfacet
  facet normal -1.6653345369377348E-16 1.0 -9.244463733058724E-33
    outer loop
      vertex -1.1102230246251568E-16 0.5 64.5
      vertex 20.0 0.5000000000000033 65.5
      vertex 20.0 0.5000000000000033 64.5
    endloop
  endfacet
  facet normal 1.6653345369377348E-16 -1.0 0.0
    outer loop
      vertex 1.6653345369377346E-16 -0.5 64.5
      vertex 20.0 -0.49999999999999667 64.5
      vertex 20.0 -0.49999999999999667 65.5
    endloop
  endfacet
  facet normal 1.6653345369377348E-16 -1.0 0.0
    outer loop
      vertex 1.6653345369377346E-16 -0.5 64.5
      vertex 20.0 -0.49999999999999667 65.5
      vertex 1.1102230246251568E-16 -0.5 65.5
    endloop
  endfacet
  facet normal -1.0 -2.7755575615628914E-16 -5.551115123125778E-17
    outer loop
      vertex -1.1102230246251568E-16 0.5 64.5
      vertex 1.6653345369377346E-16 -0.5 64.5
      vertex 1.1102230246251568E-16 -0.5 65.5
    endloop
  endfacet
  facet normal -1.0 -2.7755575615628914E-16 -5.551115123125778E-17
    outer loop
      vertex -1.1102230246251568E-16 0.5 64.5
      vertex 1.1102230246251568E-16 -0.5 65.5
      vertex -1.6653345369377346E-16 0.5 65.5
    endloop
  endfacet
  facet normal 1.0 0.0 -0.0
    outer loop
      vertex 20.0 0.5000000000000033 64.5
      vertex 20.0 0.5000000000000033 65.5
      vertex 20.0 -0.49999999999999667 65.5
    endloop
  endfacet
  facet normal 1.0 0.0 -0.0
    outer loop
      vertex 20.0 0.5000000000000033 64.5
      vertex 20.0 -0.49999999999999667 65.5
      vertex 20.0 -0.49999999999999667 64.5
    endloop
  endfacet
  facet normal 0.0 0.0 -1.0
    outer loop
      vertex -1.1102230246251568E-16 0.5 64.5
      vertex 20.0 0.5000000000000033 64.5
      vertex 20.0 -0.49999999999999667 64.5
    endloop
  endfacet
  facet normal 0.0 0.0 -1.0
    outer loop
      vertex -1.1102230246251568E-16 0.5 64.5
      vertex 20.0 -0.49999999999999667 64.5
      vertex 1.6653345369377346E-16 -0.5 64.5
    endloop
  endfacet
  facet normal 0.0 0.0 1.0
    outer loop
      vertex -1.6653345369377346E-16 0.5 65.5
      vertex 1.1102230246251568E-16 -0.5 65.5
      vertex 20.0 -0.49999999999999667 65.5
    endloop
  endfacet
  facet normal 0.0 0.0 1.0
    outer loop
      vertex -1.6653345369377346E-16 0.5 65.5
      vertex 20.0 -0.49999999999999667 65.5
      vertex 20.0 0.5000000000000033 65.5
    endloop
  endfacet
endsolid v3d.csg
