solid v3d.csg
  facet normal -1.0 -2.220446049250313E-16 -5.5099957518433694E-17
    outer loop
      vertex -0.4999999999999999 -0.5000000000000001 65.0
      vertex -0.5000000000000073 -0.4999999999999926 200.0
      vertex -0.5000000000000075 0.5000000000000073 200.0
    endloop
  endfacet
  facet normal -1.0 -2.220446049250313E-16 -5.5099957518433694E-17
    outer loop
      vertex -0.4999999999999999 -0.5000000000000001 65.0
      vertex -0.5000000000000075 0.5000000000000073 200.0
      vertex -0.5000000000000001 0.4999999999999999 65.0
    endloop
  endfacet
  facet normal 1.0 2.220446049250313E-16 5.5511151231257815E-17
    outer loop
      vertex 0.5000000000000001 -0.4999999999999999 65.0
      vertex 0.4999999999999999 0.5000000000000001 65.0
      vertex 0.4999999999999924 0.5000000000000075 200.0
    endloop
  endfacet
  facet normal 1.0 2.220446049250313E-16 5.5511151231257815E-17
    outer loop
      vertex 0.5000000000000001 -0.4999999999999999 65.0
      vertex 0.4999999999999924 0.5000000000000075 200.0
      vertex 0.4999999999999926 -0.4999999999999924 200.0
    endloop
  endfacet
  facet normal 2.220446049250313E-16 -1.0 5.551115123125784E-17
    outer loop
      vertex -0.4999999999999999 -0.5000000000000001 65.0
      vertex 0.5000000000000001 -0.4999999999999999 65.0
      vertex 0.4999999999999926 -0.4999999999999924 200.0
    endloop
  endfacet
  facet normal 2.220446049250313E-16 -1.0 5.551115123125784E-17
    outer loop
      vertex -0.4999999999999999 -0.5000000000000001 65.0
      vertex 0.4999999999999926 -0.4999999999999924 200.0
      vertex -0.5000000000000073 -0.4999999999999926 200.0
    endloop
  endfacet
  facet normal -2.2204460492503136E-16 1.0 -5.5099957518433707E-17
    outer loop
      vertex -0.5000000000000001 0.4999999999999999 65.0
      vertex -0.5000000000000075 0.5000000000000073 200.0
      vertex 0.4999999999999924 0.5000000000000075 200.0
    endloop
  endfacet
  facet normal -2.2204460492503136E-16 1.0 -5.5099957518433707E-17
    outer loop
      vertex -0.5000000000000001 0.4999999999999999 65.0
      vertex 0.4999999999999924 0.5000000000000075 200.0
      vertex 0.4999999999999999 0.5000000000000001 65.0
    endloop
  endfacet
  facet normal 0.0 0.0 -1.0
    outer loop
      vertex -0.4999999999999999 -0.5000000000000001 65.0
      vertex -0.5000000000000001 0.4999999999999999 65.0
      vertex 0.4999999999999999 0.5000000000000001 65.0
    endloop
  endfacet
  facet normal 0.0 0.0 -1.0
    outer loop
      vertex -0.4999999999999999 -0.5000000000000001 65.0
      vertex 0.4999999999999999 0.5000000000000001 65.0
      vertex 0.5000000000000001 -0.4999999999999999 65.0
    endloop
  endfacet
  facet normal 0.0 0.0 1.0
    outer loop
      vertex -0.5000000000000073 -0.4999999999999926 200.0
      vertex 0.4999999999999926 -0.4999999999999924 200.0
      vertex 0.4999999999999924 0.5000000000000075 200.0
    endloop
  endfacet
  facet normal 0.0 0.0 1.0
    outer loop
      vertex -0.5000000000000073 -0.4999999999999926 200.0
      vertex 0.4999999999999924 0.5000000000000075 200.0
      vertex -0.5000000000000075 0.5000000000000073 200.0
    endloop
  endfacet
endsolid v3d.csg
